<svg width="332" height="200" viewBox="0 0 332 200" fill="none" xmlns="http://www.w3.org/2000/svg">
<path d="M279.071 122.671L279.584 121.627L280.722 121.864C283.364 122.412 286.132 122.698 288.966 122.698C311.395 122.698 329.576 104.461 329.576 82.0268C329.576 59.5954 311.398 41.3981 288.945 41.3981C284.593 41.3981 280.421 42.1096 276.486 43.3736L275.082 43.8245L274.607 42.4288C266.648 19.047 245.356 2.37212 220.409 2.37212C203.525 2.37212 188.351 9.98926 177.807 22.1588L176.902 23.2042L175.786 22.3861C169.932 18.0914 162.747 15.5426 154.954 15.5426C144.611 15.5426 135.34 20.0131 128.876 27.1049L127.795 28.2913L126.684 27.132C117.374 17.4121 104.231 11.3635 89.6682 11.3635C64.5016 11.3635 43.6091 29.4111 39.3252 53.166L39.1196 54.3064L37.9642 54.3954C17.9048 55.9399 2.11523 72.6659 2.11523 93.1289C2.11523 114.589 19.5328 132.006 40.9941 132.006C43.6592 132.006 46.2398 131.741 48.7373 131.234L50.4022 130.895L50.5317 132.589C53.3475 169.421 82.7481 198.28 118.501 198.28C141.065 198.28 161.076 186.795 173.525 169.073L174.408 167.816L175.644 168.729C182.898 174.087 192.188 177.3 202.34 177.3C224.157 177.3 241.907 162.475 244.228 143.685L244.397 142.317L245.774 142.37C246.1 142.383 246.34 142.4 246.555 142.416C246.829 142.436 247.063 142.453 247.384 142.453C261.31 142.453 273.318 134.38 279.071 122.671Z" fill="#009FE3" stroke="white" stroke-width="3"/>
</svg>
