<svg width="225" height="139" viewBox="0 0 225 139" fill="none" xmlns="http://www.w3.org/2000/svg">
<path d="M35.8445 54.0707L35.3344 55.1363L34.1789 54.89C32.4154 54.5141 30.5658 54.3182 28.6711 54.3182C13.7015 54.3182 1.50002 66.8223 1.50002 82.2879C1.50002 97.7509 13.6991 110.228 28.6855 110.228C31.5913 110.228 34.3791 109.741 37.0112 108.873L38.4332 108.404L38.9046 109.825C44.2737 126.014 58.6116 137.5 75.3497 137.5C86.6818 137.5 96.8816 132.254 103.981 123.843L104.896 122.759L106.03 123.613C109.938 126.555 114.726 128.296 119.916 128.296C126.802 128.296 132.985 125.242 137.305 120.378L138.399 119.146L139.523 120.351C145.779 127.054 154.6 131.217 164.367 131.217C181.238 131.217 195.288 118.794 198.171 102.383L198.372 101.238L199.531 101.147C212.91 100.09 223.5 88.6249 223.5 74.5296C223.5 59.7455 211.819 47.8137 197.507 47.8137C195.727 47.8137 194.005 47.9949 192.338 48.3425L190.663 48.692L190.536 46.9856C188.632 21.4303 168.775 1.5 144.735 1.49999C129.558 1.49999 116.075 9.42811 107.673 21.7031L106.784 23.0025L105.529 22.0512C100.674 18.3699 94.453 16.1611 87.6517 16.1611C73.0354 16.1611 61.1598 26.3534 59.6076 39.2509L59.4422 40.625L58.0591 40.5704C57.7964 40.5601 57.6303 40.547 57.4894 40.5359C57.3243 40.5229 57.1938 40.5126 56.983 40.5126C47.7132 40.5126 39.6946 46.0288 35.8445 54.0707Z" fill="#009FE3" stroke="white" stroke-width="3"/>
</svg>
