<svg width="304" height="239" viewBox="0 0 304 239" fill="none" xmlns="http://www.w3.org/2000/svg">
<path d="M69.8445 84.0707L69.3344 85.1363L68.1789 84.89C66.4154 84.5141 64.5658 84.3182 62.6711 84.3182C47.7015 84.3182 35.5 96.8223 35.5 112.288C35.5 127.751 47.6991 140.228 62.6855 140.228C65.5913 140.228 68.3791 139.741 71.0112 138.873L72.4332 138.404L72.9046 139.825C78.2737 156.014 92.6116 167.5 109.35 167.5C120.682 167.5 130.882 162.254 137.981 153.843L138.896 152.759L140.03 153.613C143.938 156.555 148.726 158.296 153.916 158.296C160.802 158.296 166.985 155.242 171.305 150.378L172.399 149.146L173.523 150.351C179.779 157.054 188.6 161.217 198.367 161.217C215.238 161.217 229.288 148.794 232.171 132.383L232.372 131.238L233.531 131.147C246.91 130.09 257.5 118.625 257.5 104.53C257.5 89.7455 245.819 77.8137 231.507 77.8137C229.727 77.8137 228.005 77.9949 226.338 78.3425L224.663 78.692L224.536 76.9856C222.632 51.4303 202.775 31.5 178.735 31.5C163.558 31.5 150.075 39.4281 141.673 51.7031L140.784 53.0025L139.529 52.0512C134.674 48.3699 128.453 46.1611 121.652 46.1611C107.035 46.1611 95.1598 56.3534 93.6076 69.2509L93.4422 70.625L92.0591 70.5704C91.7964 70.5601 91.6303 70.547 91.4894 70.5359C91.3243 70.5229 91.1938 70.5126 90.983 70.5126C81.7132 70.5126 73.6946 76.0288 69.8445 84.0707Z" fill="#009FE3" stroke="white" stroke-width="3"/>
<path d="M145.725 76.8867V126H141.928V76.8867H145.725ZM162.142 76.8867V126H158.345V76.8867H162.142Z" fill="#009FE3"/>
<mask id="mask0_994_1028" style="mask-type:alpha" maskUnits="userSpaceOnUse" x="34" y="30" width="225" height="139">
<path d="M69.8445 84.0707L69.3344 85.1363L68.1789 84.89C66.4154 84.5141 64.5658 84.3182 62.6711 84.3182C47.7015 84.3182 35.5 96.8223 35.5 112.288C35.5 127.751 47.6991 140.228 62.6855 140.228C65.5913 140.228 68.3791 139.741 71.0112 138.873L72.4332 138.404L72.9046 139.825C78.2737 156.014 92.6116 167.5 109.35 167.5C120.682 167.5 130.882 162.254 137.981 153.843L138.896 152.759L140.03 153.613C143.938 156.555 148.726 158.296 153.916 158.296C160.802 158.296 166.985 155.242 171.305 150.378L172.399 149.146L173.523 150.351C179.779 157.054 188.6 161.217 198.367 161.217C215.238 161.217 229.288 148.794 232.171 132.383L232.372 131.238L233.531 131.147C246.91 130.09 257.5 118.625 257.5 104.53C257.5 89.7455 245.819 77.8137 231.507 77.8137C229.727 77.8137 228.005 77.9949 226.338 78.3425L224.663 78.692L224.536 76.9856C222.632 51.4303 202.775 31.5 178.735 31.5C163.558 31.5 150.075 39.4281 141.673 51.7031L140.784 53.0025L139.529 52.0512C134.674 48.3699 128.453 46.1611 121.652 46.1611C107.035 46.1611 95.1598 56.3534 93.6076 69.2509L93.4422 70.625L92.0591 70.5704C91.7964 70.5601 91.6303 70.547 91.4894 70.5359C91.3243 70.5229 91.1938 70.5126 90.983 70.5126C81.7132 70.5126 73.6946 76.0288 69.8445 84.0707Z" fill="#009FE3" stroke="white" stroke-width="3"/>
</mask>
<g mask="url(#mask0_994_1028)">
<circle opacity="0.7" cx="208.5" cy="52.5" r="201.5" fill="url(#paint0_radial_994_1028)"/>
</g>
<defs>
<radialGradient id="paint0_radial_994_1028" cx="0" cy="0" r="1" gradientUnits="userSpaceOnUse" gradientTransform="translate(208.5 52.5) rotate(90) scale(201.5)">
<stop stop-color="white"/>
<stop offset="1" stop-color="white" stop-opacity="0"/>
</radialGradient>
</defs>
</svg>
