<svg width="1920" height="802" viewBox="0 0 1920 802" fill="none" xmlns="http://www.w3.org/2000/svg">
<path d="M-67 3H1326.8C1379.34 3 1421.94 45.5928 1421.94 98.1338V98.1338C1421.94 150.675 1379.34 193.268 1326.8 193.268H629.277C570.306 193.268 522.5 241.073 522.5 300.045V300.045C522.5 359.016 570.306 406.822 629.277 406.822H1325.1C1378.58 406.822 1421.94 450.177 1421.94 503.659V503.659C1421.94 557.141 1378.58 600.497 1325.1 600.497H332.085C277.27 600.497 232.833 644.933 232.833 699.748V699.748C232.833 754.564 277.27 799 332.085 799H2045" stroke="white" stroke-width="5" stroke-dasharray="2 15"/>
</svg>
