<svg width="23" height="55" viewBox="0 0 23 55" fill="none" xmlns="http://www.w3.org/2000/svg">
<path d="M10 52.9997C10 53.8281 10.6716 54.4997 11.5 54.4997C12.3284 54.4997 13 53.8281 13 52.9997H10ZM12.5607 0.93966C11.9749 0.353874 11.0251 0.353874 10.4393 0.93966L0.893398 10.4856C0.307612 11.0714 0.307612 12.0211 0.893398 12.6069C1.47918 13.1927 2.42893 13.1927 3.01472 12.6069L11.5 4.12164L19.9853 12.6069C20.5711 13.1927 21.5208 13.1927 22.1066 12.6069C22.6924 12.0211 22.6924 11.0714 22.1066 10.4856L12.5607 0.93966ZM13 52.9997V2.00032H10V52.9997H13Z" fill="white"/>
</svg>
