<svg width="59" height="70" viewBox="0 0 59 70" fill="none" xmlns="http://www.w3.org/2000/svg">
<path d="M56.5 37C57.6046 37 58.5 36.1046 58.5 35C58.5 33.8954 57.6046 33 56.5 33V37ZM1.08578 33.5858C0.304733 34.3668 0.304733 35.6332 1.08578 36.4142L13.8137 49.1421C14.5948 49.9232 15.8611 49.9232 16.6421 49.1421C17.4232 48.3611 17.4232 47.0948 16.6421 46.3137L5.32842 35L16.6421 23.6863C17.4232 22.9052 17.4232 21.6389 16.6421 20.8579C15.8611 20.0768 14.5948 20.0768 13.8137 20.8579L1.08578 33.5858ZM56.5 33L2.5 33V37L56.5 37V33Z" fill="white"/>
</svg>
