<svg width="171" height="467" viewBox="0 0 171 467" fill="none" xmlns="http://www.w3.org/2000/svg">
<path d="M2 0C1.17157 0 0.5 0.671573 0.5 1.5C0.5 2.32843 1.17157 3 2 3V0ZM19.9394 454.439C19.3536 455.025 19.3536 455.975 19.9394 456.561L29.4853 466.107C30.0711 466.692 31.0208 466.692 31.6066 466.107C32.1924 465.521 32.1924 464.571 31.6066 463.985L23.1213 455.5L31.6066 447.015C32.1924 446.429 32.1924 445.479 31.6066 444.893C31.0208 444.308 30.0711 444.308 29.4853 444.893L19.9394 454.439ZM2 3H145V0H2V3ZM167.5 25.5V431.5H170.5V25.5H167.5ZM145 454H21V457H145V454ZM167.5 431.5C167.5 443.926 157.426 454 145 454V457C159.083 457 170.5 445.583 170.5 431.5H167.5ZM145 3C157.426 3 167.5 13.0736 167.5 25.5H170.5C170.5 11.4167 159.083 0 145 0V3Z" fill="white"/>
</svg>
