<svg width="532" height="137" viewBox="0 0 532 137" fill="none" xmlns="http://www.w3.org/2000/svg">
<path d="M350.347 81.9121H333.003V101.93H325.975V51.0469H350.347C360.354 51.0469 366.391 58.4575 366.391 66.4797C366.391 74.5018 360.354 81.9121 350.347 81.9121ZM349.734 56.8532H333.003V76.1825H349.734C355.54 76.1825 359.282 72.1327 359.282 66.4797C359.282 60.8263 354.927 56.8532 349.734 56.8532Z" fill="white"/>
<path d="M389.609 102.763C375.247 102.763 364.93 90.9201 364.93 76.5571C364.93 62.1937 375.247 50.2754 389.609 50.2754C403.974 50.2754 414.283 62.1937 414.283 76.5571C414.283 90.9201 403.974 102.763 389.609 102.763ZM389.609 56.3874C378.914 56.3874 371.883 65.0208 371.883 76.5571C371.883 88.094 378.914 96.6508 389.609 96.6508C400.303 96.6508 407.256 88.094 407.256 76.5571C407.256 65.0208 400.303 56.3874 389.609 56.3874Z" fill="white"/>
<path d="M434.226 102.763C427.501 102.763 420.395 101.387 413.596 98.6368L415.124 93.2129C421.315 95.3515 428.189 96.8029 434.072 96.8029C442.322 96.8029 447.059 93.5939 447.059 89.0862C447.059 85.0375 444.614 82.9749 433.003 78.6967C419.633 73.7307 415.356 70.2921 415.356 62.4232C415.356 54.0956 422.152 50.2754 434.682 50.2754C439.956 50.2754 447.593 51.2686 452.561 52.8729L451.263 58.4501C446.143 57.1515 440.106 56.3112 434.835 56.3112C425.819 56.3112 422.309 57.7626 422.309 62.4232C422.309 67.3129 425.591 68.9173 437.661 73.6544C450.804 78.8489 454.011 81.7522 454.011 88.9337C454.011 97.0324 446.296 102.763 434.226 102.763Z" fill="white"/>
<path d="M490.828 101.921L485.782 89.0096H463.017L457.896 101.921H450.943L471.417 51.0391H477.3L497.777 101.921H490.828ZM474.399 58.6792L464.924 83.5856H483.797L474.399 58.6792Z" fill="white"/>
<path d="M512.449 81.446V101.921H505.421V81.446L485.935 51.0391H493.194L508.931 75.1815L524.597 51.0391H531.853L512.449 81.446Z" fill="white"/>
<path d="M326.156 0H252.744V101.94H326.156V0Z" fill="#009FE3"/>
<path d="M0.147186 101.921V51.0391H7.17597V95.8853H33.1518V101.921H0.147186Z" fill="white"/>
<path d="M71.4162 101.921L66.3736 89.0096H43.6068L38.4879 101.921H31.5356L52.0106 51.0391H57.8935L78.3689 101.921H71.4162ZM54.9898 58.6792L45.5165 83.5856H64.3876L54.9898 58.6792Z" fill="white"/>
<path d="M127.356 101.921L112.152 81.2165H96.8721V101.921H89.8435V51.0391H114.52C124.3 51.0391 130.412 58.2206 130.412 66.1665C130.412 72.5076 126.592 78.3139 119.793 80.3006L135.683 101.921H127.356ZM113.68 56.8453H96.8721V75.5631H113.68C119.487 75.5631 123.307 71.8202 123.307 66.1665C123.307 60.5124 118.876 56.8453 113.68 56.8453Z" fill="white"/>
<path d="M156.603 102.763C142.239 102.763 131.925 90.9201 131.925 76.5571C131.925 62.1937 142.239 50.2754 156.603 50.2754C170.966 50.2754 181.28 62.1937 181.28 76.5571C181.28 90.9201 170.966 102.763 156.603 102.763ZM156.603 56.3874C145.906 56.3874 138.878 65.0208 138.878 76.5571C138.878 88.094 145.906 96.6508 156.603 96.6508C167.299 96.6508 174.251 88.094 174.251 76.5571C174.251 65.0208 167.299 56.3874 156.603 56.3874Z" fill="white"/>
<path d="M220.857 57.8393C217.573 56.9223 213.294 56.3874 209.627 56.3874C196.409 56.3874 188.005 64.5625 188.005 76.4808C188.005 88.3988 196.409 96.6508 209.627 96.6508C212.989 96.6508 216.656 96.1155 220.857 95.1223L222.232 100.775C218.183 101.998 213.676 102.763 209.168 102.763C192.742 102.763 180.976 91.0726 180.976 76.4808C180.976 61.888 192.742 50.2754 209.168 50.2754C213.982 50.2754 218.107 50.8103 222.309 52.1855L220.857 57.8393Z" fill="white"/>
<path d="M260.202 101.921V78.9258H233.691V101.921H226.663V51.0391H233.691V72.7361H260.202V51.0391H267.308V101.921H260.202Z" fill="white"/>
<path d="M273.572 101.921V51.0391H308.715V57.0748H280.678V72.5839H306.96V78.619H280.678V95.8853H308.715V101.921H273.572Z" fill="white"/>
<path d="M89.245 130.799V110.896H91.038V129.245H101.497V130.799H89.245Z" fill="white"/>
<path d="M117.339 130.799L115.128 125.24H105.356L103.145 130.799H101.322L109.57 110.896H110.885L119.162 130.799H117.339ZM110.227 113.078L105.954 123.776H114.53L110.227 113.078Z" fill="white"/>
<path d="M128.844 130.799H119.849V110.896H127.857C132.161 110.896 134.283 112.928 134.283 115.977C134.283 117.769 133.207 119.593 131.145 120.339C133.685 121.146 134.88 122.969 134.88 125.27C134.88 128.14 132.699 130.799 128.844 130.799ZM127.917 112.45H121.642V119.772H127.798C130.308 119.772 132.46 118.666 132.46 116.126C132.46 113.586 130.607 112.45 127.917 112.45ZM128.665 121.266H121.642V129.245H128.724C131.324 129.245 133.087 127.81 133.087 125.27C133.087 122.969 131.653 121.266 128.665 121.266Z" fill="white"/>
<path d="M144.541 131.127C138.952 131.127 135.157 126.465 135.157 120.878C135.157 115.289 138.952 110.598 144.541 110.598C150.129 110.598 153.924 115.289 153.924 120.878C153.924 126.465 150.129 131.127 144.541 131.127ZM144.541 112.152C140.058 112.152 136.95 115.887 136.95 120.878C136.95 125.868 140.058 129.574 144.541 129.574C149.023 129.574 152.131 125.868 152.131 120.878C152.131 115.887 149.023 112.152 144.541 112.152Z" fill="white"/>
<path d="M170.93 130.799L164.565 122.163H157.632V130.799H155.839V110.896H164.834C168.689 110.896 170.87 113.616 170.87 116.544C170.87 119.025 169.286 121.355 166.448 121.983L172.962 130.799H170.93ZM164.834 112.45H157.632V120.669H164.834C167.493 120.669 169.077 119.025 169.077 116.544C169.077 114.064 167.105 112.45 164.834 112.45Z" fill="white"/>
<path d="M188.349 130.799L186.137 125.24H176.365L174.154 130.799H172.331L180.579 110.896H181.894L190.172 130.799H188.349ZM181.236 113.078L176.963 123.776H185.539L181.236 113.078Z" fill="white"/>
<path d="M195.771 112.45V130.799H193.977V112.45H187.134V110.896H202.614V112.45H195.771Z" fill="white"/>
<path d="M210.762 131.127C205.174 131.127 201.379 126.465 201.379 120.878C201.379 115.289 205.174 110.598 210.762 110.598C216.351 110.598 220.146 115.289 220.146 120.878C220.146 126.465 216.351 131.127 210.762 131.127ZM210.762 112.152C206.279 112.152 203.172 115.887 203.172 120.878C203.172 125.868 206.279 129.574 210.762 129.574C215.245 129.574 218.353 125.868 218.353 120.878C218.353 115.887 215.245 112.152 210.762 112.152Z" fill="white"/>
<path d="M222.22 130.799V110.896H224.014V130.799H222.22Z" fill="white"/>
<path d="M242.512 130.799L236.147 122.163H229.214V130.799H227.421V110.896H236.416C240.271 110.896 242.452 113.616 242.452 116.544C242.452 119.025 240.868 121.355 238.029 121.983L244.544 130.799H242.512ZM236.416 112.45H229.214V120.669H236.416C239.075 120.669 240.659 119.025 240.659 116.544C240.659 114.064 238.687 112.45 236.416 112.45Z" fill="white"/>
<path d="M245.562 130.799V110.896H258.83V112.45H247.385V119.712H258.083V121.266H247.385V129.245H258.83V130.799H245.562Z" fill="white"/>
<path d="M268.729 130.806H264.754V110.904H268.729C275.512 110.904 280.443 115.117 280.443 120.855C280.443 126.593 275.512 130.806 268.729 130.806ZM268.998 112.458H266.547V129.252H268.998C273.809 129.252 278.62 126.204 278.62 120.855C278.62 115.506 273.809 112.458 268.998 112.458Z" fill="white"/>
<path d="M281.872 130.799V110.896H295.141V112.45H283.694V119.712H294.392V121.266H283.694V129.245H295.141V130.799H281.872Z" fill="white"/>
<path d="M312.59 130.799L306.225 122.163H299.292V130.799H297.499V110.896H306.495C310.347 110.896 312.529 113.616 312.529 116.544C312.529 119.025 310.946 121.355 308.107 121.983L314.621 130.799H312.59ZM306.495 112.45H299.292V120.669H306.495C309.153 120.669 310.737 119.025 310.737 116.544C310.737 114.064 308.764 112.45 306.495 112.45Z" fill="white"/>
<path d="M332.289 130.799V114.183L325.385 128.169H324.252L317.349 114.183V130.799H315.614V110.896H317.349L324.819 125.808L332.289 110.896H334.023V130.799H332.289Z" fill="white"/>
<path d="M350.756 130.799L348.546 125.24H338.774L336.561 130.799H334.74L342.989 110.896H344.3L352.581 130.799H350.756ZM343.647 113.078L339.37 123.776H347.947L343.647 113.078Z" fill="white"/>
<path d="M358.178 112.45V130.799H356.384V112.45H349.544V110.896H365.022V112.45H358.178Z" fill="white"/>
<path d="M373.187 131.127C367.596 131.127 363.8 126.465 363.8 120.878C363.8 115.289 367.596 110.598 373.187 110.598C378.771 110.598 382.567 115.289 382.567 120.878C382.567 126.465 378.771 131.127 373.187 131.127ZM373.187 112.152C368.703 112.152 365.594 115.887 365.594 120.878C365.594 125.868 368.703 129.574 373.187 129.574C377.668 129.574 380.773 125.868 380.773 120.878C380.773 115.887 377.668 112.152 373.187 112.152Z" fill="white"/>
<path d="M384.471 130.799V110.896H386.265V129.245H396.721V130.799H384.471Z" fill="white"/>
<path d="M405.158 131.127C399.568 131.127 395.775 126.465 395.775 120.878C395.775 115.289 399.568 110.598 405.158 110.598C410.746 110.598 414.542 115.289 414.542 120.878C414.542 126.465 410.746 131.127 405.158 131.127ZM405.158 112.152C400.674 112.152 397.566 115.887 397.566 120.878C397.566 125.868 400.674 129.574 405.158 129.574C409.639 129.574 412.748 125.868 412.748 120.878C412.748 115.887 409.639 112.152 405.158 112.152Z" fill="white"/>
<path d="M425.628 131.127C419.292 131.127 414.661 126.585 414.661 120.848C414.661 114.901 418.846 110.598 425.601 110.598C427.212 110.598 429.244 110.807 430.77 111.225L430.497 112.69C428.734 112.301 427.092 112.152 425.54 112.152C420.249 112.152 416.452 115.409 416.452 120.848C416.452 126.077 420.399 129.574 425.54 129.574C426.766 129.574 428.349 129.424 429.84 129.126V122.013H431.454V130.261C429.571 130.859 427.242 131.127 425.628 131.127Z" fill="white"/>
<path d="M434.267 130.799V110.896H436.057V130.799H434.267Z" fill="white"/>
<path d="M448.23 131.098V136.387H446.408V131.098C441.298 130.62 437.923 126.137 437.923 120.848C437.923 115.259 441.747 110.598 447.338 110.598C452.925 110.598 456.718 115.259 456.718 120.848C456.718 126.137 453.341 130.62 448.23 131.098ZM447.338 112.152C442.854 112.152 439.745 115.857 439.745 120.848C439.745 125.838 442.854 129.574 447.338 129.574C451.819 129.574 454.924 125.838 454.924 120.848C454.924 115.857 451.819 112.152 447.338 112.152Z" fill="white"/>
<path d="M466.156 131.127C461.104 131.127 458.298 127.601 458.298 123.836V110.896H460.12V123.955C460.12 127.541 462.66 129.574 466.156 129.574C469.653 129.574 472.193 127.302 472.193 123.955V110.896H473.988V123.836C473.988 127.631 471.209 131.127 466.156 131.127Z" fill="white"/>
<path d="M476.919 130.799V110.896H490.188V112.45H478.741V119.712H489.439V121.266H478.741V129.245H490.188V130.799H476.919Z" fill="white"/>
</svg>
