<svg width="162" height="230" viewBox="0 0 162 230" fill="none" xmlns="http://www.w3.org/2000/svg">
<path d="M1 80.9212C1 36.7829 36.8163 1 81 1C125.184 1 161 36.7829 161 80.9212C161 116.799 140.911 153.851 120.688 182.032C110.591 196.102 100.492 207.917 92.9177 216.215C89.1309 220.364 85.9762 223.632 83.7697 225.861C82.6665 226.975 81.8005 227.83 81.2111 228.406C81.1362 228.479 81.0658 228.547 81 228.611C80.9342 228.547 80.8638 228.479 80.7889 228.406C80.1995 227.83 79.3335 226.975 78.2303 225.861C76.0238 223.632 72.8691 220.364 69.0823 216.215C61.5077 207.917 51.4091 196.102 41.3125 182.032C21.0892 153.851 1 116.799 1 80.9212Z" fill="#009FE3" stroke="white" stroke-width="2"/>
</svg>
