<svg width="101" height="100" viewBox="0 0 101 100" fill="none" xmlns="http://www.w3.org/2000/svg">
<path d="M70.9988 39.4989C70.9988 47.6716 66.4095 56.2045 61.6866 62.7922C59.3401 66.0653 56.9916 68.8158 55.2296 70.748C54.349 71.7136 53.6163 72.4733 53.1052 72.9902C53.0689 73.0269 53.0338 73.0623 52.9999 73.0965C52.9659 73.0623 52.9308 73.0269 52.8946 72.9902C52.3835 72.4733 51.6507 71.7136 50.7702 70.748C49.0081 68.8158 46.6597 66.0653 44.3131 62.7922C39.5902 56.2045 35.001 47.6716 35.001 39.4989C35.001 29.5584 43.0594 21.5 52.9999 21.5C62.9404 21.5 70.9988 29.5584 70.9988 39.4989Z" stroke="white" stroke-width="2"/>
<circle cx="52.9995" cy="39.9995" r="8.49945" stroke="white" stroke-width="2"/>
<path d="M0.5 0H100.5H0.5ZM100.5 102H30.5C12.8269 102 -1.5 87.6731 -1.5 70H2.5C2.5 85.464 15.036 98 30.5 98H100.5V102ZM30.5 102C12.8269 102 -1.5 87.6731 -1.5 70V0H2.5V70C2.5 85.464 15.036 98 30.5 98V102ZM100.5 0V100V0Z" fill="white" mask="url(#path-1-inside-1_297_720)"/>
</svg>
