<svg width="101" height="100" viewBox="0 0 101 100" fill="none" xmlns="http://www.w3.org/2000/svg">
<path d="M69.9988 39.4989C69.9988 47.3438 65.57 55.6592 60.8739 62.2095C58.5557 65.4431 56.2336 68.1629 54.4907 70.0742C53.9249 70.6947 53.4212 71.2287 52.9999 71.6661C52.5786 71.2287 52.0749 70.6947 51.5091 70.0742C49.7661 68.1629 47.4441 65.4431 45.1259 62.2095C40.4298 55.6592 36.001 47.3438 36.001 39.4989C36.001 30.1107 43.6116 22.5 52.9999 22.5C62.3881 22.5 69.9988 30.1107 69.9988 39.4989Z" stroke="white" stroke-width="4"/>
<circle cx="52.9995" cy="39.9995" r="7.49945" stroke="white" stroke-width="4"/>
<path d="M0.5 0H100.5H0.5ZM100.5 104H30.5C11.7223 104 -3.5 88.7777 -3.5 70H4.5C4.5 84.3594 16.1406 96 30.5 96H100.5V104ZM30.5 104C11.7223 104 -3.5 88.7777 -3.5 70V0H4.5V70C4.5 84.3594 16.1406 96 30.5 96V104ZM100.5 0V100V0Z" fill="white" mask="url(#path-1-inside-1_297_722)"/>
</svg>
