<svg width="17" height="30" viewBox="0 0 17 30" fill="none" xmlns="http://www.w3.org/2000/svg">
<path d="M14 13C12.8954 13 12 13.8954 12 15C12 16.1046 12.8954 17 14 17L14 13ZM16.4142 16.4142C17.1953 15.6332 17.1953 14.3668 16.4142 13.5858L3.68629 0.857865C2.90524 0.0768166 1.63891 0.0768167 0.857863 0.857866C0.0768144 1.63891 0.0768145 2.90524 0.857863 3.68629L12.1716 15L0.857865 26.3137C0.0768167 27.0948 0.0768168 28.3611 0.857866 29.1421C1.63891 29.9232 2.90524 29.9232 3.68629 29.1421L16.4142 16.4142ZM14 17L15 17L15 13L14 13L14 17Z" fill="white"/>
</svg>
