<svg width="83" height="83" viewBox="0 0 83 83" fill="none" xmlns="http://www.w3.org/2000/svg">
<rect width="83" height="83" rx="41.5" fill="#009FE3"/>
<path d="M60.3123 36.125C60.3123 36.4814 60.1707 36.8232 59.9187 37.0752C59.6667 37.3272 59.3249 37.4688 58.9685 37.4688H56.281V40.1562C56.281 40.5126 56.1394 40.8544 55.8874 41.1064C55.6354 41.3584 55.2937 41.5 54.9373 41.5C54.5809 41.5 54.2391 41.3584 53.9871 41.1064C53.7351 40.8544 53.5935 40.5126 53.5935 40.1562V37.4688H50.906C50.5496 37.4688 50.2078 37.3272 49.9558 37.0752C49.7038 36.8232 49.5623 36.4814 49.5623 36.125C49.5623 35.7686 49.7038 35.4268 49.9558 35.1748C50.2078 34.9228 50.5496 34.7812 50.906 34.7812H53.5935V32.0938C53.5935 31.7374 53.7351 31.3956 53.9871 31.1436C54.2391 30.8916 54.5809 30.75 54.9373 30.75C55.2937 30.75 55.6354 30.8916 55.8874 31.1436C56.1394 31.3956 56.281 31.7374 56.281 32.0938V34.7812H58.9685C59.3249 34.7812 59.6667 34.9228 59.9187 35.1748C60.1707 35.4268 60.3123 35.7686 60.3123 36.125ZM44.1873 29.4062H45.531V30.75C45.531 31.1064 45.6726 31.4482 45.9246 31.7002C46.1766 31.9522 46.5184 32.0938 46.8748 32.0938C47.2312 32.0938 47.5729 31.9522 47.8249 31.7002C48.0769 31.4482 48.2185 31.1064 48.2185 30.75V29.4062H49.5623C49.9187 29.4062 50.2604 29.2647 50.5124 29.0127C50.7644 28.7607 50.906 28.4189 50.906 28.0625C50.906 27.7061 50.7644 27.3643 50.5124 27.1123C50.2604 26.8603 49.9187 26.7188 49.5623 26.7188H48.2185V25.375C48.2185 25.0186 48.0769 24.6768 47.8249 24.4248C47.5729 24.1728 47.2312 24.0312 46.8748 24.0312C46.5184 24.0312 46.1766 24.1728 45.9246 24.4248C45.6726 24.6768 45.531 25.0186 45.531 25.375V26.7188H44.1873C43.8309 26.7188 43.4891 26.8603 43.2371 27.1123C42.9851 27.3643 42.8435 27.7061 42.8435 28.0625C42.8435 28.4189 42.9851 28.7607 43.2371 29.0127C43.4891 29.2647 43.8309 29.4062 44.1873 29.4062ZM56.4104 45.6992C56.5668 45.8813 56.6715 46.102 56.7138 46.3383C56.756 46.5746 56.7342 46.818 56.6505 47.043C55.7181 49.5858 54.1602 51.8529 52.1206 53.6349C50.0809 55.4169 47.6253 56.6564 44.9803 57.2391C42.3352 57.8218 39.5861 57.7288 36.9864 56.9688C34.3868 56.2088 32.0205 54.8062 30.1059 52.8905C28.1913 50.9748 26.7901 48.6077 26.0315 46.0077C25.273 43.4076 25.1816 40.6584 25.7658 38.0137C26.35 35.369 27.5909 32.9141 29.374 30.8755C31.1572 28.8368 33.4251 27.2802 35.9686 26.3492C36.1924 26.2672 36.4341 26.2463 36.6687 26.2885C36.9033 26.3307 37.1225 26.4346 37.3037 26.5895C37.485 26.7444 37.6217 26.9448 37.7 27.17C37.7782 27.3952 37.7952 27.6371 37.749 27.871C37.2781 30.2544 37.4015 32.7172 38.1082 35.0416C38.815 37.366 40.0834 39.4806 41.8013 41.1985C43.5192 42.9164 45.6338 44.1848 47.9582 44.8915C50.2826 45.5983 52.7453 45.7216 55.1287 45.2507C55.363 45.205 55.6051 45.2224 55.8304 45.3012C56.0556 45.38 56.2558 45.5174 56.4104 45.6992ZM53.1534 48.1986C52.8528 48.2137 52.5504 48.2221 52.2498 48.2221C47.6177 48.2172 43.1768 46.3747 39.9017 43.099C36.6266 39.8233 34.785 35.3821 34.781 30.75C34.781 30.4493 34.781 30.147 34.8045 29.8463C33.0166 30.8752 31.4896 32.3018 30.3418 34.0157C29.1939 35.7296 28.456 37.6847 28.1853 39.7297C27.9146 41.7746 28.1183 43.8544 28.7807 45.8079C29.4431 47.7615 30.5463 49.5363 32.0049 50.9949C33.4635 52.4535 35.2383 53.5567 37.1918 54.2191C39.1454 54.8814 41.2252 55.0851 43.2701 54.8144C45.315 54.5437 47.2702 53.8059 48.9841 52.658C50.698 51.5101 52.1246 49.9831 53.1534 48.1952V48.1986Z" fill="white"/>
</svg>
