<svg width="83" height="83" viewBox="0 0 83 83" fill="none" xmlns="http://www.w3.org/2000/svg">
<rect width="83" height="83" rx="41.5" fill="#009FE3"/>
<path d="M40.0938 26.0312V24.625C40.0938 24.252 40.2419 23.8944 40.5056 23.6306C40.7694 23.3669 41.127 23.2188 41.5 23.2188C41.873 23.2188 42.2306 23.3669 42.4944 23.6306C42.7581 23.8944 42.9062 24.252 42.9062 24.625V26.0312C42.9062 26.4042 42.7581 26.7619 42.4944 27.0256C42.2306 27.2893 41.873 27.4375 41.5 27.4375C41.127 27.4375 40.7694 27.2893 40.5056 27.0256C40.2419 26.7619 40.0938 26.4042 40.0938 26.0312ZM52.75 41.5C52.75 43.725 52.0902 45.9001 50.854 47.7502C49.6179 49.6002 47.8609 51.0422 45.8052 51.8936C43.7495 52.7451 41.4875 52.9679 39.3052 52.5338C37.1229 52.0998 35.1184 51.0283 33.545 49.455C31.9717 47.8816 30.9002 45.8771 30.4662 43.6948C30.0321 41.5125 30.2549 39.2505 31.1064 37.1948C31.9578 35.1391 33.3998 33.3821 35.2498 32.146C37.0999 30.9098 39.275 30.25 41.5 30.25C44.4827 30.2533 47.3423 31.4396 49.4514 33.5486C51.5604 35.6577 52.7467 38.5173 52.75 41.5ZM49.9375 41.5C49.9375 39.8312 49.4426 38.1999 48.5155 36.8124C47.5884 35.4248 46.2706 34.3434 44.7289 33.7048C43.1871 33.0662 41.4906 32.8991 39.8539 33.2246C38.2172 33.5502 36.7138 34.3538 35.5338 35.5338C34.3538 36.7138 33.5502 38.2172 33.2246 39.8539C32.8991 41.4906 33.0662 43.1871 33.7048 44.7289C34.3434 46.2706 35.4248 47.5884 36.8124 48.5155C38.1999 49.4426 39.8312 49.9375 41.5 49.9375C43.737 49.9352 45.8818 49.0455 47.4636 47.4636C49.0455 45.8818 49.9352 43.737 49.9375 41.5ZM29.2551 31.2449C29.5189 31.5088 29.8768 31.657 30.25 31.657C30.6232 31.657 30.9811 31.5088 31.2449 31.2449C31.5088 30.9811 31.657 30.6232 31.657 30.25C31.657 29.8768 31.5088 29.5189 31.2449 29.2551L29.8387 27.8488C29.5748 27.585 29.2169 27.4367 28.8438 27.4367C28.4706 27.4367 28.1127 27.585 27.8488 27.8488C27.585 28.1127 27.4367 28.4706 27.4367 28.8438C27.4367 29.2169 27.585 29.5748 27.8488 29.8387L29.2551 31.2449ZM29.2551 51.7551L27.8488 53.1613C27.585 53.4252 27.4367 53.7831 27.4367 54.1562C27.4367 54.5294 27.585 54.8873 27.8488 55.1512C28.1127 55.415 28.4706 55.5633 28.8438 55.5633C29.2169 55.5633 29.5748 55.415 29.8387 55.1512L31.2449 53.7449C31.3756 53.6143 31.4792 53.4592 31.5499 53.2884C31.6206 53.1177 31.657 52.9348 31.657 52.75C31.657 52.5652 31.6206 52.3823 31.5499 52.2116C31.4792 52.0408 31.3756 51.8857 31.2449 51.7551C31.1143 51.6244 30.9592 51.5208 30.7884 51.4501C30.6177 51.3794 30.4348 51.343 30.25 51.343C30.0652 51.343 29.8823 51.3794 29.7116 51.4501C29.5408 51.5208 29.3857 51.6244 29.2551 51.7551ZM52.75 31.6562C52.9347 31.6564 53.1177 31.6201 53.2884 31.5496C53.4591 31.479 53.6142 31.3755 53.7449 31.2449L55.1512 29.8387C55.415 29.5748 55.5633 29.2169 55.5633 28.8438C55.5633 28.4706 55.415 28.1127 55.1512 27.8488C54.8873 27.585 54.5294 27.4367 54.1562 27.4367C53.7831 27.4367 53.4252 27.585 53.1613 27.8488L51.7551 29.2551C51.5582 29.4517 51.4241 29.7024 51.3697 29.9753C51.3154 30.2483 51.3432 30.5312 51.4498 30.7883C51.5563 31.0454 51.7367 31.2651 51.9681 31.4196C52.1996 31.5741 52.4717 31.6565 52.75 31.6562ZM53.7449 51.7551C53.4811 51.4912 53.1232 51.343 52.75 51.343C52.3768 51.343 52.0189 51.4912 51.7551 51.7551C51.4912 52.0189 51.343 52.3768 51.343 52.75C51.343 53.1232 51.4912 53.4811 51.7551 53.7449L53.1613 55.1512C53.292 55.2818 53.4471 55.3855 53.6178 55.4562C53.7885 55.5269 53.9715 55.5633 54.1562 55.5633C54.341 55.5633 54.524 55.5269 54.6947 55.4562C54.8654 55.3855 55.0205 55.2818 55.1512 55.1512C55.2818 55.0205 55.3855 54.8654 55.4562 54.6947C55.5269 54.524 55.5633 54.341 55.5633 54.1562C55.5633 53.9715 55.5269 53.7885 55.4562 53.6178C55.3855 53.4471 55.2818 53.292 55.1512 53.1613L53.7449 51.7551ZM26.0312 40.0938H24.625C24.252 40.0938 23.8944 40.2419 23.6306 40.5056C23.3669 40.7694 23.2188 41.127 23.2188 41.5C23.2188 41.873 23.3669 42.2306 23.6306 42.4944C23.8944 42.7581 24.252 42.9062 24.625 42.9062H26.0312C26.4042 42.9062 26.7619 42.7581 27.0256 42.4944C27.2893 42.2306 27.4375 41.873 27.4375 41.5C27.4375 41.127 27.2893 40.7694 27.0256 40.5056C26.7619 40.2419 26.4042 40.0938 26.0312 40.0938ZM41.5 55.5625C41.127 55.5625 40.7694 55.7107 40.5056 55.9744C40.2419 56.2381 40.0938 56.5958 40.0938 56.9688V58.375C40.0938 58.748 40.2419 59.1056 40.5056 59.3694C40.7694 59.6331 41.127 59.7812 41.5 59.7812C41.873 59.7812 42.2306 59.6331 42.4944 59.3694C42.7581 59.1056 42.9062 58.748 42.9062 58.375V56.9688C42.9062 56.5958 42.7581 56.2381 42.4944 55.9744C42.2306 55.7107 41.873 55.5625 41.5 55.5625ZM58.375 40.0938H56.9688C56.5958 40.0938 56.2381 40.2419 55.9744 40.5056C55.7107 40.7694 55.5625 41.127 55.5625 41.5C55.5625 41.873 55.7107 42.2306 55.9744 42.4944C56.2381 42.7581 56.5958 42.9062 56.9688 42.9062H58.375C58.748 42.9062 59.1056 42.7581 59.3694 42.4944C59.6331 42.2306 59.7812 41.873 59.7812 41.5C59.7812 41.127 59.6331 40.7694 59.3694 40.5056C59.1056 40.2419 58.748 40.0938 58.375 40.0938Z" fill="white"/>
</svg>
