<svg width="170" height="170" viewBox="0 0 170 170" fill="none" xmlns="http://www.w3.org/2000/svg">
<rect width="170" height="170" rx="85" fill="#009FE3"/>
<path d="M105.085 94.1066C104.34 98.2707 102.337 102.106 99.345 105.097C96.3534 108.088 92.5172 110.091 88.353 110.835C88.1949 110.861 88.0351 110.874 87.875 110.875C87.1538 110.875 86.4591 110.604 85.9285 110.115C85.3979 109.627 85.0703 108.957 85.0106 108.238C84.9509 107.519 85.1635 106.804 85.6062 106.235C86.0489 105.666 86.6894 105.284 87.4006 105.165C93.3555 104.162 98.4083 99.1091 99.4181 93.1435C99.5458 92.3915 99.9671 91.721 100.589 91.2795C101.211 90.8381 101.983 90.6618 102.735 90.7896C103.487 90.9173 104.158 91.3385 104.599 91.9606C105.041 92.5826 105.217 93.3546 105.089 94.1066H105.085ZM116.625 90.75C116.625 99.1375 113.293 107.181 107.362 113.112C101.431 119.043 93.3875 122.375 85 122.375C76.6125 122.375 68.5686 119.043 62.6377 113.112C56.7069 107.181 53.375 99.1375 53.375 90.75C53.375 80.7163 57.3281 70.4561 65.1122 60.2571C65.3586 59.9341 65.6706 59.667 66.0277 59.4735C66.3848 59.2799 66.7789 59.1642 67.184 59.1339C67.5891 59.1037 67.996 59.1597 68.3779 59.2981C68.7597 59.4366 69.1079 59.6544 69.3995 59.9372L78.0677 68.3502L85.9739 46.6403C86.1319 46.2073 86.3916 45.8187 86.7312 45.5071C87.0709 45.1955 87.4804 44.9701 87.9254 44.85C88.3704 44.7299 88.8377 44.7185 89.288 44.8168C89.7383 44.9151 90.1584 45.1202 90.5128 45.4149C98.3723 51.9375 116.625 69.3852 116.625 90.75ZM110.875 90.75C110.875 74.1864 98.013 59.8725 89.9558 52.5377L81.9525 74.4847C81.7882 74.9355 81.5138 75.338 81.1542 75.6555C80.7945 75.9731 80.3611 76.1956 79.8935 76.3027C79.4259 76.4099 78.9388 76.3984 78.4768 76.2691C78.0148 76.1399 77.5924 75.8971 77.2483 75.5628L67.7716 66.37C62.0323 74.6536 59.125 82.8438 59.125 90.75C59.125 97.6125 61.8511 104.194 66.7036 109.046C71.5561 113.899 78.1375 116.625 85 116.625C91.8625 116.625 98.4439 113.899 103.296 109.046C108.149 104.194 110.875 97.6125 110.875 90.75Z" fill="white"/>
</svg>
