<svg width="92" height="92" viewBox="0 0 92 92" fill="none" xmlns="http://www.w3.org/2000/svg">
<path d="M66.0855 55.1066C65.34 59.2707 63.3366 63.1064 60.345 66.0974C57.3534 69.0883 53.5172 71.0909 49.353 71.8355C49.1949 71.8608 49.0351 71.874 48.875 71.875C48.1538 71.8748 47.4591 71.6036 46.9285 71.1152C46.3979 70.6267 46.0703 69.9567 46.0106 69.238C45.9509 68.5193 46.1635 67.8045 46.6062 67.2352C47.0489 66.6659 47.6894 66.2837 48.4006 66.1646C54.3555 65.1619 59.4083 60.1091 60.4181 54.1435C60.5458 53.3915 60.9671 52.721 61.5891 52.2795C62.2112 51.8381 62.9831 51.6618 63.7352 51.7896C64.4872 51.9173 65.1576 52.3385 65.5991 52.9606C66.0405 53.5826 66.2168 54.3546 66.0891 55.1066H66.0855ZM77.625 51.75C77.625 60.1375 74.2931 68.1814 68.3623 74.1123C62.4314 80.0431 54.3875 83.375 46 83.375C37.6125 83.375 29.5686 80.0431 23.6377 74.1123C17.7069 68.1814 14.375 60.1375 14.375 51.75C14.375 41.7163 18.3281 31.4561 26.1122 21.2571C26.3586 20.9341 26.6706 20.667 27.0277 20.4735C27.3848 20.2799 27.7789 20.1642 28.184 20.1339C28.5891 20.1037 28.996 20.1597 29.3779 20.2981C29.7597 20.4366 30.1079 20.6544 30.3995 20.9372L39.0677 29.3502L46.9739 7.64034C47.1319 7.20734 47.3916 6.81867 47.7312 6.50708C48.0709 6.1955 48.4804 5.97014 48.9254 5.85C49.3704 5.72986 49.8377 5.71846 50.288 5.81677C50.7383 5.91508 51.1584 6.12021 51.5128 6.41487C59.3723 12.9375 77.625 30.3852 77.625 51.75ZM71.875 51.75C71.875 35.1864 59.013 20.8725 50.9558 13.5377L42.9525 35.4847C42.7882 35.9355 42.5138 36.338 42.1542 36.6555C41.7945 36.9731 41.3611 37.1956 40.8935 37.3027C40.4259 37.4099 39.9388 37.3984 39.4768 37.2691C39.0148 37.1399 38.5924 36.8971 38.2483 36.5628L28.7716 27.37C23.0323 35.6536 20.125 43.8438 20.125 51.75C20.125 58.6125 22.8511 65.1939 27.7036 70.0464C32.5561 74.8989 39.1375 77.625 46 77.625C52.8625 77.625 59.4439 74.8989 64.2964 70.0464C69.1489 65.1939 71.875 58.6125 71.875 51.75Z" fill="white"/>
</svg>
