<svg width="92" height="92" viewBox="0 0 92 92" fill="none" xmlns="http://www.w3.org/2000/svg">
<path d="M71.0055 46.3768L52.4582 39.6229L45.6301 21.2629C45.2257 20.1764 44.4941 19.2386 43.5341 18.5762C42.574 17.9139 41.4316 17.5587 40.261 17.5587C39.0905 17.5587 37.9481 17.9139 36.988 18.5762C36.0279 19.2386 35.2963 20.1764 34.892 21.2629L28.0566 39.6016L9.49492 46.3555C8.39642 46.7554 7.44838 47.479 6.77872 48.4287C6.10905 49.3784 5.75 50.5083 5.75 51.6662C5.75 52.824 6.10905 53.954 6.77872 54.9036C7.44838 55.8533 8.39642 56.5769 9.49492 56.9769L28.0315 63.7734L34.8596 82.1227C35.264 83.2093 35.9955 84.147 36.9556 84.8094C37.9157 85.4718 39.0581 85.827 40.2287 85.827C41.3992 85.827 42.5416 85.4718 43.5017 84.8094C44.4618 84.147 45.1934 83.2093 45.5977 82.1227L52.4259 63.777L70.9876 57.0231C72.0861 56.6231 73.0341 55.8995 73.7038 54.9498C74.3735 54.0002 74.7325 52.8702 74.7325 51.7124C74.7325 50.5545 74.3735 49.4246 73.7038 48.4749C73.0341 47.5253 72.0861 46.8016 70.9876 46.4017L71.0055 46.3768ZM50.4529 58.4414C49.676 58.7235 48.9704 59.1694 48.3852 59.7482C47.8 60.3271 47.3492 61.025 47.064 61.7935L40.2359 80.0859L33.4221 61.7793C33.1367 61.0148 32.6873 60.3206 32.1048 59.7444C31.5222 59.1682 30.8204 58.7237 30.0476 58.4414L11.5541 51.6875L30.0476 44.9336C30.8204 44.6513 31.5222 44.2068 32.1048 43.6306C32.6873 43.0544 33.1367 42.3602 33.4221 41.5957L40.2502 23.3033L47.0784 41.5957C47.3635 42.3642 47.8144 43.0621 48.3996 43.641C48.9848 44.2198 49.6903 44.6657 50.4673 44.9478L68.9607 51.7017L50.4529 58.4414ZM51.7502 14.7188C51.7502 13.9645 52.0531 13.2412 52.5923 12.7079C53.1315 12.1746 53.8627 11.875 54.6252 11.875H60.3752V6.1875C60.3752 5.43329 60.6781 4.70997 61.2173 4.17666C61.7565 3.64336 62.4877 3.34375 63.2502 3.34375C64.0127 3.34375 64.744 3.64336 65.2832 4.17666C65.8223 4.70997 66.1252 5.43329 66.1252 6.1875V11.875H71.8752C72.6377 11.875 73.369 12.1746 73.9082 12.7079C74.4473 13.2412 74.7502 13.9645 74.7502 14.7188C74.7502 15.473 74.4473 16.1963 73.9082 16.7296C73.369 17.2629 72.6377 17.5625 71.8752 17.5625H66.1252V23.25C66.1252 24.0042 65.8223 24.7275 65.2832 25.2608C64.744 25.7941 64.0127 26.0938 63.2502 26.0938C62.4877 26.0938 61.7565 25.7941 61.2173 25.2608C60.6781 24.7275 60.3752 24.0042 60.3752 23.25V17.5625H54.6252C53.8627 17.5625 53.1315 17.2629 52.5923 16.7296C52.0531 16.1963 51.7502 15.473 51.7502 14.7188ZM89.1252 31.7812C89.1252 32.5355 88.8223 33.2588 88.2832 33.7921C87.744 34.3254 87.0127 34.625 86.2502 34.625H83.3752V37.4688C83.3752 38.223 83.0723 38.9463 82.5332 39.4796C81.994 40.0129 81.2627 40.3125 80.5002 40.3125C79.7377 40.3125 79.0065 40.0129 78.4673 39.4796C77.9281 38.9463 77.6252 38.223 77.6252 37.4688V34.625H74.7502C73.9877 34.625 73.2565 34.3254 72.7173 33.7921C72.1781 33.2588 71.8752 32.5355 71.8752 31.7812C71.8752 31.027 72.1781 30.3037 72.7173 29.7704C73.2565 29.2371 73.9877 28.9375 74.7502 28.9375H77.6252V26.0938C77.6252 25.3395 77.9281 24.6162 78.4673 24.0829C79.0065 23.5496 79.7377 23.25 80.5002 23.25C81.2627 23.25 81.994 23.5496 82.5332 24.0829C83.0723 24.6162 83.3752 25.3395 83.3752 26.0938V28.9375H86.2502C87.0127 28.9375 87.744 29.2371 88.2832 29.7704C88.8223 30.3037 89.1252 31.027 89.1252 31.7812Z" fill="white"/>
</svg>
