<svg width="170" height="170" viewBox="0 0 170 170" fill="none" xmlns="http://www.w3.org/2000/svg">
<rect width="170" height="170" rx="85" fill="#009FE3"/>
<path d="M110.006 85.3768L91.4582 78.6229L84.6301 60.2629C84.2257 59.1764 83.4941 58.2386 82.5341 57.5762C81.574 56.9139 80.4316 56.5587 79.261 56.5587C78.0905 56.5587 76.9481 56.9139 75.988 57.5762C75.0279 58.2386 74.2963 59.1764 73.892 60.2629L67.0566 78.6016L48.4949 85.3555C47.3964 85.7554 46.4484 86.479 45.7787 87.4287C45.1091 88.3784 44.75 89.5083 44.75 90.6662C44.75 91.824 45.1091 92.954 45.7787 93.9036C46.4484 94.8533 47.3964 95.5769 48.4949 95.9769L67.0315 102.773L73.8596 121.123C74.264 122.209 74.9955 123.147 75.9556 123.809C76.9157 124.472 78.0581 124.827 79.2287 124.827C80.3992 124.827 81.5416 124.472 82.5017 123.809C83.4618 123.147 84.1934 122.209 84.5977 121.123L91.4259 102.777L109.988 96.0231C111.086 95.6231 112.034 94.8995 112.704 93.9498C113.373 93.0002 113.732 91.8702 113.732 90.7124C113.732 89.5545 113.373 88.4246 112.704 87.4749C112.034 86.5253 111.086 85.8016 109.988 85.4017L110.006 85.3768ZM89.4529 97.4414C88.676 97.7235 87.9704 98.1694 87.3852 98.7482C86.8 99.3271 86.3492 100.025 86.064 100.793L79.2359 119.086L72.4221 100.779C72.1367 100.015 71.6873 99.3206 71.1048 98.7444C70.5222 98.1682 69.8204 97.7237 69.0476 97.4414L50.5541 90.6875L69.0476 83.9336C69.8204 83.6513 70.5222 83.2068 71.1048 82.6306C71.6873 82.0544 72.1367 81.3602 72.4221 80.5957L79.2502 62.3033L86.0784 80.5957C86.3635 81.3642 86.8144 82.0621 87.3996 82.641C87.9848 83.2198 88.6903 83.6657 89.4673 83.9478L107.961 90.7017L89.4529 97.4414ZM90.7502 53.7188C90.7502 52.9645 91.0531 52.2412 91.5923 51.7079C92.1315 51.1746 92.8627 50.875 93.6252 50.875H99.3752V45.1875C99.3752 44.4333 99.6781 43.71 100.217 43.1767C100.756 42.6434 101.488 42.3438 102.25 42.3438C103.013 42.3438 103.744 42.6434 104.283 43.1767C104.822 43.71 105.125 44.4333 105.125 45.1875V50.875H110.875C111.638 50.875 112.369 51.1746 112.908 51.7079C113.447 52.2412 113.75 52.9645 113.75 53.7188C113.75 54.473 113.447 55.1963 112.908 55.7296C112.369 56.2629 111.638 56.5625 110.875 56.5625H105.125V62.25C105.125 63.0042 104.822 63.7275 104.283 64.2608C103.744 64.7941 103.013 65.0938 102.25 65.0938C101.488 65.0938 100.756 64.7941 100.217 64.2608C99.6781 63.7275 99.3752 63.0042 99.3752 62.25V56.5625H93.6252C92.8627 56.5625 92.1315 56.2629 91.5923 55.7296C91.0531 55.1963 90.7502 54.473 90.7502 53.7188ZM128.125 70.7812C128.125 71.5355 127.822 72.2588 127.283 72.7921C126.744 73.3254 126.013 73.625 125.25 73.625H122.375V76.4688C122.375 77.223 122.072 77.9463 121.533 78.4796C120.994 79.0129 120.263 79.3125 119.5 79.3125C118.738 79.3125 118.006 79.0129 117.467 78.4796C116.928 77.9463 116.625 77.223 116.625 76.4688V73.625H113.75C112.988 73.625 112.256 73.3254 111.717 72.7921C111.178 72.2588 110.875 71.5355 110.875 70.7812C110.875 70.027 111.178 69.3037 111.717 68.7704C112.256 68.2371 112.988 67.9375 113.75 67.9375H116.625V65.0938C116.625 64.3395 116.928 63.6162 117.467 63.0829C118.006 62.5496 118.738 62.25 119.5 62.25C120.263 62.25 120.994 62.5496 121.533 63.0829C122.072 63.6162 122.375 64.3395 122.375 65.0938V67.9375H125.25C126.013 67.9375 126.744 68.2371 127.283 68.7704C127.822 69.3037 128.125 70.027 128.125 70.7812Z" fill="white"/>
</svg>
