<svg width="88" height="88" viewBox="0 0 88 88" fill="none" xmlns="http://www.w3.org/2000/svg">
<path d="M82.5001 43.5344C81.8723 36.4177 79.2391 29.6176 74.8996 23.9057C70.56 18.1938 64.6878 13.7989 57.9494 11.2198C51.2109 8.64065 43.8762 7.98063 36.7775 9.3146C29.6788 10.6486 23.1005 13.9231 17.7891 18.7666C10.6985 25.2066 6.31773 34.0481 5.51727 43.5344C5.452 44.2852 5.5453 45.0412 5.79124 45.7544C6.03718 46.4677 6.43039 47.1226 6.94592 47.6777C7.46145 48.2327 8.08805 48.6758 8.78597 48.9787C9.48388 49.2817 10.2379 49.4379 11.0001 49.4375H41.2501V68.4687C41.2501 71.3529 42.409 74.119 44.4719 76.1585C46.5348 78.198 49.3327 79.3437 52.2501 79.3437C55.1675 79.3437 57.9654 78.198 60.0283 76.1585C62.0912 74.119 63.2501 71.3529 63.2501 68.4687C63.2501 67.7477 62.9604 67.0561 62.4446 66.5463C61.9289 66.0364 61.2294 65.75 60.5001 65.75C59.7707 65.75 59.0713 66.0364 58.5555 66.5463C58.0398 67.0561 57.7501 67.7477 57.7501 68.4687C57.7501 69.9108 57.1706 71.2939 56.1392 72.3136C55.1077 73.3333 53.7088 73.9062 52.2501 73.9062C50.7914 73.9062 49.3924 73.3333 48.361 72.3136C47.3295 71.2939 46.7501 69.9108 46.7501 68.4687V49.4375H77.0001C77.7637 49.4402 78.5196 49.2858 79.2196 48.9839C79.9195 48.682 80.5482 48.2393 81.0656 47.6839C81.583 47.1286 81.9778 46.4729 82.2247 45.7585C82.4717 45.044 82.5655 44.2866 82.5001 43.5344ZM11.0001 44C11.6096 36.9964 14.4873 30.3738 19.206 25.1155C23.9247 19.8572 30.2328 16.2434 37.1938 14.8108C33.1651 20.2109 28.136 29.7639 27.5585 44H11.0001ZM33.0516 44C33.5295 33.543 36.6713 26.0528 39.3423 21.4887C40.6592 19.2215 42.221 17.1021 44.0001 15.1676C45.7759 17.1023 47.3341 19.2218 48.6476 21.4887C53.2126 29.2847 54.6563 37.6381 54.9382 44H33.0516ZM60.4313 44C59.8538 29.7639 54.8248 20.2109 50.8063 14.7938C57.7719 16.2233 64.0844 19.8383 68.8041 25.1008C73.5238 30.3633 76.3984 36.9919 77.0001 44H60.4313Z" fill="white"/>
</svg>
