<svg width="170" height="170" viewBox="0 0 170 170" fill="none" xmlns="http://www.w3.org/2000/svg">
<rect width="170" height="170" rx="85" fill="#009FE3"/>
<path d="M123.5 84.5344C122.872 77.4177 120.239 70.6176 115.9 64.9057C111.56 59.1938 105.688 54.7989 98.9494 52.2198C92.2109 49.6407 84.8762 48.9806 77.7775 50.3146C70.6788 51.6486 64.1005 54.9231 58.7891 59.7666C51.6985 66.2066 47.3177 75.0481 46.5173 84.5344C46.452 85.2852 46.5453 86.0412 46.7912 86.7544C47.0372 87.4677 47.4304 88.1226 47.9459 88.6777C48.4615 89.2327 49.0881 89.6758 49.786 89.9787C50.4839 90.2817 51.2379 90.4379 52.0001 90.4375H82.2501V109.469C82.2501 112.353 83.409 115.119 85.4719 117.159C87.5348 119.198 90.3327 120.344 93.2501 120.344C96.1675 120.344 98.9654 119.198 101.028 117.159C103.091 115.119 104.25 112.353 104.25 109.469C104.25 108.748 103.96 108.056 103.445 107.546C102.929 107.036 102.229 106.75 101.5 106.75C100.771 106.75 100.071 107.036 99.5555 107.546C99.0398 108.056 98.7501 108.748 98.7501 109.469C98.7501 110.911 98.1706 112.294 97.1392 113.314C96.1077 114.333 94.7088 114.906 93.2501 114.906C91.7914 114.906 90.3924 114.333 89.361 113.314C88.3295 112.294 87.7501 110.911 87.7501 109.469V90.4375H118C118.764 90.4402 119.52 90.2858 120.22 89.9839C120.92 89.682 121.548 89.2393 122.066 88.6839C122.583 88.1286 122.978 87.4729 123.225 86.7585C123.472 86.044 123.565 85.2866 123.5 84.5344ZM52.0001 85C52.6096 77.9964 55.4873 71.3738 60.206 66.1155C64.9247 60.8572 71.2328 57.2434 78.1938 55.8108C74.1651 61.2109 69.136 70.7639 68.5585 85H52.0001ZM74.0516 85C74.5295 74.543 77.6713 67.0528 80.3423 62.4887C81.6592 60.2215 83.221 58.1021 85.0001 56.1676C86.7759 58.1023 88.3341 60.2218 89.6476 62.4887C94.2126 70.2847 95.6563 78.6381 95.9382 85H74.0516ZM101.431 85C100.854 70.7639 95.8248 61.2109 91.8063 55.7938C98.7719 57.2233 105.084 60.8383 109.804 66.1008C114.524 71.3633 117.398 77.9919 118 85H101.431Z" fill="white"/>
</svg>
