<svg width="107" height="108" viewBox="0 0 107 108" fill="none" xmlns="http://www.w3.org/2000/svg">
<rect y="0.666687" width="107" height="107" rx="53.5" fill="#009FE3"/>
<path d="M62.0609 45.4198C61.5717 42.7337 60.3735 40.2351 58.5955 38.1936C56.8175 36.1521 54.5273 34.6454 51.9721 33.836C49.4169 33.0266 46.6938 32.9454 44.0967 33.601C41.4996 34.2566 39.1272 35.6242 37.2355 37.5561C35.3438 39.4881 34.0047 41.911 33.3627 44.5634C32.7208 47.2157 32.8003 49.9968 33.5929 52.6063C34.3854 55.2158 35.8607 57.5548 37.8596 59.3706C39.8586 61.1864 42.3052 62.4102 44.9353 62.9098C45.4245 65.5959 46.6228 68.0946 48.4008 70.136C50.1788 72.1775 52.469 73.6842 55.0242 74.4936C57.5794 75.303 60.3025 75.3843 62.8996 74.7286C65.4967 74.073 67.8691 72.7054 69.7608 70.7735C71.6525 68.8416 72.9916 66.4186 73.6335 63.7663C74.2755 61.1139 74.1959 58.3329 73.4034 55.7233C72.6109 53.1138 71.1355 50.7749 69.1366 48.959C67.1377 47.1432 64.6911 45.9194 62.0609 45.4198ZM71.125 60.1667C71.125 60.4517 71.1121 60.7292 71.0919 61.0123L61.9122 51.6373C62.1505 50.6224 62.2847 49.585 62.3125 48.5417C64.8386 49.2015 67.0771 50.7031 68.6733 52.8088C70.2695 54.9144 71.1323 57.5037 71.125 60.1667ZM56.9148 59.7748L66.5737 69.6411C65.6691 70.3593 64.6664 70.9386 63.5976 71.3604L54.0765 61.6367C55.0891 61.1287 56.0414 60.504 56.9148 59.7748ZM58.9913 57.6542C59.7051 56.7633 60.3167 55.792 60.8143 54.7592L70.3355 64.4792C69.9221 65.5694 69.3549 66.5921 68.652 67.5148L58.9913 57.6542ZM35.875 48.1667C35.875 45.7933 36.5641 43.4732 37.8552 41.4998C39.1463 39.5265 40.9814 37.9884 43.1284 37.0801C45.2755 36.1719 47.638 35.9342 49.9173 36.3973C52.1966 36.8603 54.2902 38.0032 55.9335 39.6814C57.5767 41.3596 58.6958 43.4978 59.1492 45.8256C59.6026 48.1534 59.3699 50.5662 58.4806 52.7589C57.5912 54.9516 56.0852 56.8257 54.1529 58.1443C52.2206 59.4629 49.9489 60.1667 47.625 60.1667C44.5097 60.1632 41.523 58.8978 39.3202 56.6481C37.1174 54.3985 35.8784 51.3482 35.875 48.1667ZM47.9922 63.1667C49.0128 63.1413 50.028 63.0074 51.0215 62.7673L60.2011 72.1423C59.9276 72.1629 59.6504 72.1761 59.3731 72.1761C56.7648 72.1826 54.2288 71.3 52.1673 69.668C50.1057 68.036 48.6364 65.748 47.9922 63.1667Z" fill="white"/>
</svg>
