<svg width="107" height="108" viewBox="0 0 107 108" fill="none" xmlns="http://www.w3.org/2000/svg">
<rect y="0.333313" width="107" height="107" rx="53.5" fill="#009FE3"/>
<path d="M59.0782 42.6771C57.7145 42.6762 56.3569 42.8592 55.042 43.2209C54.523 42.3741 53.8924 41.6008 53.1674 40.9219L55.0619 38.2185C55.182 38.0471 55.2671 37.8536 55.3125 37.6492C55.3578 37.4448 55.3624 37.2335 55.326 37.0273C55.2897 36.8212 55.2131 36.6242 55.1006 36.4476C54.9881 36.271 54.842 36.1183 54.6705 35.9983C54.499 35.8782 54.3055 35.793 54.1011 35.7477C53.8967 35.7024 53.6854 35.6978 53.4792 35.7341C53.2731 35.7705 53.0761 35.8471 52.8995 35.9596C52.7229 36.0721 52.5703 36.2182 52.4502 36.3897L50.5556 39.0911C48.9976 38.3045 47.2766 37.895 45.5313 37.8958C45.4158 37.8958 45.3002 37.8958 45.1847 37.8958L44.6089 34.6505C44.5787 34.4391 44.5063 34.2359 44.396 34.0529C44.2857 33.87 44.1397 33.7111 43.9668 33.5857C43.7938 33.4604 43.5975 33.371 43.3893 33.323C43.1812 33.275 42.9655 33.2693 42.7551 33.3063C42.5448 33.3433 42.344 33.4222 42.1647 33.5384C41.9854 33.6545 41.8313 33.8055 41.7115 33.9824C41.5918 34.1593 41.5088 34.3584 41.4675 34.568C41.4262 34.7776 41.4275 34.9933 41.4712 35.2024L42.045 38.4576C40.2774 39.0422 38.6839 40.0591 37.4092 41.416L34.6958 39.5175C34.5244 39.3944 34.3304 39.3066 34.1248 39.2592C33.9193 39.2117 33.7064 39.2055 33.4984 39.241C33.2905 39.2764 33.0916 39.3528 32.9134 39.4657C32.7352 39.5786 32.5812 39.7257 32.4603 39.8986C32.3394 40.0714 32.254 40.2666 32.2091 40.4727C32.1641 40.6788 32.1606 40.8918 32.1986 41.0993C32.2366 41.3068 32.3154 41.5046 32.4305 41.6814C32.5456 41.8582 32.6946 42.0104 32.869 42.1292L35.5704 44.0258C34.7809 45.5834 34.3713 47.3058 34.3751 49.0521C34.3751 49.1656 34.3751 49.2812 34.3751 49.3947L31.1298 49.9685C30.737 50.0373 30.3842 50.2509 30.1412 50.567C29.8982 50.8832 29.7825 51.279 29.817 51.6763C29.8515 52.0736 30.0338 52.4435 30.3277 52.713C30.6216 52.9825 31.0059 53.132 31.4047 53.1321C31.4975 53.1319 31.5902 53.1239 31.6816 53.1082L34.9329 52.5344C35.2185 53.4041 35.6106 54.2352 36.1003 55.0087C34.5758 56.4247 33.5131 58.2669 33.0504 60.2954C32.5878 62.3239 32.7467 64.4447 33.5064 66.3816C34.2661 68.3186 35.5915 69.9819 37.3099 71.1549C39.0283 72.3279 41.0601 72.9563 43.1407 72.9583H59.0782C63.0937 72.9583 66.9448 71.3631 69.7842 68.5237C72.6236 65.6843 74.2188 61.8332 74.2188 57.8177C74.2188 53.8021 72.6236 49.9511 69.7842 47.1116C66.9448 44.2722 63.0937 42.6771 59.0782 42.6771ZM37.5626 49.0521C37.5635 47.3644 38.1002 45.7206 39.0954 44.3576C40.0906 42.9945 41.4928 41.9827 43.1 41.4678C44.7072 40.9529 46.4364 40.9615 48.0384 41.4925C49.6404 42.0234 51.0324 43.0493 52.0139 44.4222C48.7628 46.1331 46.2418 48.9641 44.9177 52.391C42.8226 52.0293 40.667 52.3193 38.7419 53.2217C37.9712 51.9674 37.563 50.5242 37.5626 49.0521ZM59.0782 69.7708H43.1407C42.1598 69.769 41.1897 69.566 40.2903 69.1744C39.391 68.7827 38.5816 68.2107 37.9121 67.4938C37.2426 66.7769 36.7273 65.9303 36.3981 65.0063C36.0688 64.0823 35.9326 63.1006 35.9979 62.1218C36.0631 61.1431 36.3285 60.1881 36.7775 59.316C37.2265 58.4439 37.8496 57.6732 38.6084 57.0515C39.3671 56.4298 40.2453 55.9704 41.1887 55.7016C42.132 55.4328 43.1205 55.3604 44.0929 55.4888C44.0192 55.961 43.9674 56.4431 43.9395 56.9292C43.9275 57.1385 43.9568 57.3481 44.0258 57.5461C44.0948 57.744 44.2021 57.9265 44.3415 58.083C44.481 58.2395 44.65 58.367 44.8387 58.4582C45.0275 58.5494 45.2324 58.6025 45.4417 58.6146C45.651 58.6266 45.8606 58.5973 46.0585 58.5283C46.2565 58.4593 46.4389 58.352 46.5954 58.2126C46.752 58.0731 46.8794 57.9041 46.9707 57.7154C47.0619 57.5266 47.115 57.3217 47.127 57.1125C47.1718 56.3175 47.2972 55.5292 47.5016 54.7597C47.5016 54.7278 47.5195 54.6959 47.5255 54.6641C48.1113 52.5114 49.2872 50.5654 50.9206 49.0457C52.5539 47.5261 54.5796 46.4934 56.7689 46.0642C58.9581 45.635 61.2238 45.8264 63.31 46.6168C65.3962 47.4073 67.2199 48.7652 68.5751 50.5374C69.9304 52.3095 70.7631 54.4252 70.9795 56.6457C71.1957 58.8661 70.7869 61.1028 69.7992 63.1032C68.8115 65.1036 67.2842 66.7879 65.3897 67.9661C63.4952 69.1443 61.3091 69.7694 59.0782 69.7708Z" fill="white"/>
</svg>
