<svg width="107" height="107" viewBox="0 0 107 107" fill="none" xmlns="http://www.w3.org/2000/svg">
<rect width="107" height="107" rx="53.5" fill="#009FE3"/>
<path d="M73.3751 41.1703C73.3639 40.1923 73.1516 39.2267 72.7511 38.3311C72.3505 37.4355 71.7699 36.6284 71.044 35.9581C68.1455 33.2606 63.4418 33.3622 60.564 36.1876L56.5642 40.1344C55.6196 39.2897 54.3795 38.8346 53.1017 38.8637C51.824 38.8928 50.6068 39.4039 49.7032 40.2908L47.8399 42.1189C47.5319 42.4207 47.2876 42.7792 47.1209 43.1737C46.9542 43.5683 46.8684 43.9912 46.8684 44.4183C46.8684 44.8454 46.9542 45.2683 47.1209 45.6628C47.2876 46.0574 47.5319 46.4158 47.8399 46.7176L48.254 47.1361L37.6954 57.4955C36.679 58.4848 35.9434 59.7172 35.5611 61.0709C35.1787 62.4246 35.163 63.8527 35.5153 65.2142L33.8591 68.9537C33.6277 69.4672 33.5606 70.0375 33.6667 70.5891C33.7728 71.1408 34.0471 71.6479 34.4533 72.0433C34.9222 72.5078 35.5237 72.8217 36.1784 72.9436C36.8331 73.0654 37.51 72.9895 38.1198 72.7258L41.749 71.1719C43.1115 71.4738 44.5297 71.4319 45.8711 71.0501C47.2126 70.6682 48.4334 69.9588 49.4195 68.9883L59.9781 58.6289L60.4046 59.0473C61.0258 59.6564 61.868 59.9985 62.7461 59.9985C63.6243 59.9985 64.4665 59.6564 65.0877 59.0473L66.951 57.2192C67.8564 56.3315 68.3777 55.1351 68.4063 53.8795C68.4348 52.6239 67.9684 51.406 67.1042 50.4795L71.193 46.4434C71.8999 45.7539 72.4576 44.9315 72.8325 44.0253C73.2075 43.1192 73.3921 42.1481 73.3751 41.1703ZM47.0822 66.7031C46.4448 67.3298 45.6455 67.7743 44.7702 67.989C43.8948 68.2037 42.9764 68.1805 42.1134 67.9219C41.735 67.8074 41.3274 67.8298 40.9644 67.9848L37.2171 69.5895L38.8009 65.9739C38.9652 65.6044 38.9837 65.1881 38.8527 64.8059C38.4954 63.7713 38.5027 62.649 38.8734 61.6189H52.2579L47.0822 66.7031ZM55.5704 58.375H41.5068L50.6162 49.4375L57.6428 56.3437L55.5704 58.375ZM68.8577 44.1562L63.6053 49.34C63.295 49.6447 63.1206 50.0579 63.1206 50.4887C63.1206 50.9195 63.295 51.3326 63.6053 51.6373L64.6177 52.6286C64.7717 52.7795 64.8939 52.9587 64.9772 53.156C65.0606 53.3533 65.1035 53.5647 65.1035 53.7783C65.1035 53.9918 65.0606 54.2033 64.9772 54.4006C64.8939 54.5978 64.7717 54.777 64.6177 54.928L62.7544 56.7561L50.1876 44.4122L52.0509 42.5841C52.3615 42.2795 52.7826 42.1085 53.2217 42.1085C53.6607 42.1085 54.0819 42.2795 54.3924 42.5841L55.4048 43.5773C55.7152 43.8815 56.1359 44.0524 56.5745 44.0526C56.7924 44.0523 57.008 44.0098 57.2091 43.9275C57.4102 43.8452 57.5928 43.7249 57.7463 43.5733L62.9097 38.4769C64.5266 36.8884 67.1538 36.8153 68.7666 38.3123C69.1695 38.6857 69.4918 39.1345 69.7146 39.6324C69.9374 40.1302 70.0561 40.6668 70.0636 41.2104C70.0711 41.7541 69.9674 42.2936 69.7584 42.7972C69.5495 43.3008 69.2397 43.7581 68.8474 44.142L68.8577 44.1562Z" fill="white"/>
</svg>
