<svg width="107" height="108" viewBox="0 0 107 108" fill="none" xmlns="http://www.w3.org/2000/svg">
<rect y="0.333344" width="107" height="107" rx="53.5" fill="#009FE3"/>
<path d="M74.8223 27.8366H66.4422C66.0718 27.8366 65.7166 27.9837 65.4546 28.2457C65.1927 28.5076 65.0456 28.8628 65.0456 29.2333C65.0456 29.6037 65.1927 29.9589 65.4546 30.2209C65.7166 30.4828 66.0718 30.6299 66.4422 30.6299H71.4511L64.1063 37.9747C61.332 35.707 57.7922 34.5923 54.2191 34.8611C50.646 35.13 47.3129 36.7618 44.9092 39.4191C42.5055 42.0765 41.215 45.556 41.3047 49.1381C41.3944 52.7202 42.8574 56.1308 45.3911 58.6645C47.9248 61.1982 51.3354 62.6612 54.9175 62.7509C58.4995 62.8406 61.9791 61.5501 64.6364 59.1464C67.2938 56.7426 68.9256 53.4095 69.1944 49.8364C69.4633 46.2633 68.3486 42.7236 66.0808 39.9493L73.4256 32.6062V37.6133C73.4256 37.9837 73.5728 38.339 73.8347 38.6009C74.0966 38.8628 74.4519 39.01 74.8223 39.01C75.1927 39.01 75.548 38.8628 75.8099 38.6009C76.0718 38.339 76.219 37.9837 76.219 37.6133V29.2333C76.219 28.8628 76.0718 28.5076 75.8099 28.2457C75.548 27.9837 75.1927 27.8366 74.8223 27.8366ZM63.167 56.6937C61.6042 58.2558 59.6133 59.3194 57.446 59.7502C55.2787 60.1809 53.0324 59.9593 50.991 59.1135C48.9496 58.2677 47.2048 56.8355 45.9773 54.9982C44.7498 53.1608 44.0946 51.0008 44.0946 48.7911C44.0946 46.5814 44.7498 44.4213 45.9773 42.584C47.2048 40.7466 48.9496 39.3145 50.991 38.4687C53.0324 37.6229 55.2787 37.4013 57.446 37.832C59.6133 38.2627 61.6042 39.3264 63.167 40.8885C65.2593 42.9864 66.4342 45.8283 66.4342 48.7911C66.4342 51.7539 65.2593 54.5958 63.167 56.6937Z" fill="white"/>
<path d="M61.5072 57.4833C61.5072 54.7805 60.723 52.1357 59.2496 49.8698C57.7762 47.6039 55.677 45.8142 53.2066 44.7177C50.7362 43.6212 48.0008 43.265 45.332 43.6924C42.6631 44.1198 40.1757 45.3124 38.1712 47.1255C36.1668 48.9386 34.7315 51.2944 34.0394 53.9071C33.3473 56.5198 33.4281 59.2771 34.2721 61.8448C35.1161 64.4125 36.687 66.6801 38.7942 68.3726C40.9015 70.0652 43.4546 71.1099 46.1438 71.3802V75.6401H40.5571C40.1867 75.6401 39.8314 75.7872 39.5695 76.0492C39.3076 76.3111 39.1604 76.6663 39.1604 77.0368C39.1604 77.4072 39.3076 77.7624 39.5695 78.0244C39.8314 78.2863 40.1867 78.4334 40.5571 78.4334H46.1438V82.6235C46.1438 82.9939 46.291 83.3491 46.5529 83.6111C46.8148 83.873 47.1701 84.0201 47.5405 84.0201C47.9109 84.0201 48.2662 83.873 48.5281 83.6111C48.79 83.3491 48.9372 82.9939 48.9372 82.6235V78.4334H54.5239C54.8943 78.4334 55.2495 78.2863 55.5115 78.0244C55.7734 77.7624 55.9205 77.4072 55.9205 77.0368C55.9205 76.6663 55.7734 76.3111 55.5115 76.0492C55.2495 75.7872 54.8943 75.6401 54.5239 75.6401H48.9372V71.3802C52.3806 71.0298 55.5718 69.415 57.8936 66.8481C60.2155 64.2812 61.503 60.9445 61.5072 57.4833ZM36.3671 57.4833C36.3671 55.2734 37.0224 53.1131 38.2501 51.2757C39.4779 49.4382 41.2229 48.0061 43.2646 47.1604C45.3063 46.3147 47.5529 46.0934 49.7203 46.5246C51.8877 46.9557 53.8787 48.0199 55.4413 49.5825C57.0039 51.1451 58.0681 53.136 58.4992 55.3035C58.9303 57.4709 58.7091 59.7175 57.8634 61.7592C57.0177 63.8008 55.5856 65.5459 53.7481 66.7736C51.9106 68.0014 49.7504 68.6567 47.5405 68.6567C44.5781 68.6535 41.738 67.4752 39.6433 65.3805C37.5486 63.2858 36.3703 60.4457 36.3671 57.4833Z" fill="white"/>
</svg>
