<svg width="107" height="108" viewBox="0 0 107 108" fill="none" xmlns="http://www.w3.org/2000/svg">
<rect y="0.166656" width="107" height="107" rx="53.5" fill="#009FE3"/>
<path d="M74.0625 57.9792H66.6361C66.6903 57.5018 66.7179 57.0219 66.7188 56.5417C66.7188 53.1104 65.3261 49.8197 62.8471 47.3935C60.3681 44.9672 57.0058 43.6042 53.5 43.6042C49.9942 43.6042 46.6319 44.9672 44.1529 47.3935C41.6739 49.8197 40.2812 53.1104 40.2812 56.5417C40.2821 57.0219 40.3097 57.5018 40.3639 57.9792H32.9375C32.548 57.9792 32.1744 58.1306 31.8989 58.4002C31.6235 58.6698 31.4688 59.0354 31.4688 59.4167C31.4688 59.7979 31.6235 60.1635 31.8989 60.4331C32.1744 60.7027 32.548 60.8542 32.9375 60.8542H74.0625C74.452 60.8542 74.8256 60.7027 75.1011 60.4331C75.3765 60.1635 75.5312 59.7979 75.5312 59.4167C75.5312 59.0354 75.3765 58.6698 75.1011 58.4002C74.8256 58.1306 74.452 57.9792 74.0625 57.9792ZM43.2188 56.5417C43.2161 55.1579 43.505 53.7885 44.0675 52.5189C44.63 51.2494 45.454 50.1071 46.488 49.1633C47.5221 48.2196 48.7438 47.4947 50.077 47.034C51.4102 46.5733 52.8261 46.3867 54.2363 46.4858C55.6466 46.5849 57.0207 46.9676 58.273 47.61C59.5252 48.2524 60.6287 49.1407 61.5143 50.2194C62.3999 51.298 63.0487 52.5439 63.4201 53.879C63.7915 55.2142 63.8776 56.61 63.6729 57.9792H43.3271C43.256 57.5031 43.2198 57.0227 43.2188 56.5417ZM69.6562 66.6042C69.6562 66.9854 69.5015 67.351 69.2261 67.6206C68.9506 67.8902 68.577 68.0417 68.1875 68.0417H38.8125C38.423 68.0417 38.0494 67.8902 37.7739 67.6206C37.4985 67.351 37.3438 66.9854 37.3438 66.6042C37.3438 66.2229 37.4985 65.8573 37.7739 65.5877C38.0494 65.3181 38.423 65.1667 38.8125 65.1667H68.1875C68.577 65.1667 68.9506 65.3181 69.2261 65.5877C69.5015 65.8573 69.6562 66.2229 69.6562 66.6042ZM43.373 38.4974C43.1987 38.1562 43.17 37.7612 43.2932 37.3993C43.4165 37.0374 43.6816 36.7382 44.0302 36.5676C44.3789 36.397 44.7825 36.3689 45.1523 36.4895C45.522 36.6102 45.8277 36.8697 46.002 37.2109L47.4708 40.0859C47.5571 40.2548 47.6086 40.4388 47.6222 40.6272C47.6359 40.8156 47.6116 41.0048 47.5505 41.184C47.4895 41.3632 47.393 41.5289 47.2665 41.6716C47.1401 41.8143 46.9861 41.9312 46.8135 42.0157C46.6409 42.1002 46.453 42.1506 46.2604 42.164C46.0679 42.1773 45.8746 42.1535 45.6915 42.0938C45.5084 42.034 45.3391 41.9396 45.1933 41.8158C45.0475 41.6921 44.928 41.5414 44.8417 41.3724L43.373 38.4974ZM33.0917 47.2734C33.1781 47.1045 33.2976 46.9539 33.4435 46.8303C33.5894 46.7066 33.7587 46.6123 33.9418 46.5527C34.1249 46.4932 34.3182 46.4695 34.5107 46.4831C34.7032 46.4967 34.891 46.5472 35.0635 46.6319L38.001 48.0694C38.3494 48.24 38.6143 48.5391 38.7374 48.9008C38.8605 49.2626 38.8317 49.6574 38.6574 49.9983C38.483 50.3393 38.1775 50.5986 37.8079 50.719C37.4382 50.8395 37.0349 50.8113 36.6865 50.6407L33.749 49.2032C33.5763 49.1188 33.4222 49.002 33.2957 48.8593C33.1692 48.7166 33.0727 48.5509 33.0116 48.3716C32.9506 48.1924 32.9262 48.0032 32.94 47.8147C32.9537 47.6263 33.0053 47.4423 33.0917 47.2734ZM68.3417 49.9974C68.1677 49.6564 68.1392 49.2618 68.2625 48.9002C68.3857 48.5387 68.6506 48.2398 68.999 48.0694L71.9365 46.6319C72.109 46.5474 72.2968 46.497 72.4892 46.4836C72.6816 46.4701 72.8748 46.4939 73.0579 46.5536C73.2409 46.6132 73.4101 46.7076 73.5558 46.8312C73.7016 46.9549 73.821 47.1054 73.9074 47.2743C73.9937 47.4431 74.0452 47.6269 74.0589 47.8152C74.0726 48.0036 74.0483 48.1927 73.9874 48.3718C73.9264 48.5509 73.83 48.7165 73.7037 48.8592C73.5773 49.0018 73.4235 49.1187 73.251 49.2032L70.3135 50.6407C70.1409 50.7253 69.953 50.7758 69.7604 50.7892C69.5679 50.8027 69.3745 50.7789 69.1914 50.7191C69.0082 50.6594 68.8389 50.5649 68.6931 50.4411C68.5474 50.3172 68.4279 50.1665 68.3417 49.9974ZM59.5292 40.0859L60.998 37.2109C61.1723 36.8697 61.478 36.6102 61.8477 36.4895C62.2175 36.3689 62.6211 36.397 62.9698 36.5676C63.3184 36.7382 63.5835 37.0374 63.7068 37.3993C63.83 37.7612 63.8013 38.1562 63.627 38.4974L62.1583 41.3724C61.984 41.7137 61.6783 41.9731 61.3085 42.0938C60.9387 42.2144 60.5351 42.1863 60.1865 42.0157C59.8378 41.8451 59.5727 41.5459 59.4495 41.184C59.3262 40.8221 59.3549 40.4271 59.5292 40.0859Z" fill="white"/>
</svg>
