<svg width="107" height="107" viewBox="0 0 107 107" fill="none" xmlns="http://www.w3.org/2000/svg">
<rect width="107" height="107" rx="53.5" fill="#009FE3"/>
<path d="M69.4375 37.5625C67.012 37.5603 64.6127 38.0645 62.3931 39.0427C59.3849 33.9885 54.4403 31.4724 54.2132 31.3549C53.9918 31.2441 53.7476 31.1864 53.5 31.1864C53.2524 31.1864 53.0082 31.2441 52.7868 31.3549C52.5597 31.4704 47.6071 33.9885 44.6069 39.0427C42.3873 38.0645 39.988 37.5603 37.5625 37.5625C37.1398 37.5625 36.7344 37.7304 36.4355 38.0293C36.1367 38.3282 35.9688 38.7336 35.9688 39.1563V47.125C35.974 51.4971 37.6107 55.7098 40.5584 58.9387C43.5061 62.1675 47.5528 64.1801 51.9062 64.5826V71.6409L44.6507 68.0111C44.4634 67.9174 44.2595 67.8616 44.0506 67.8467C43.8417 67.8319 43.6319 67.8583 43.4332 67.9246C43.2345 67.9908 43.0508 68.0955 42.8926 68.2327C42.7344 68.3699 42.6048 68.537 42.5111 68.7243C42.4174 68.9116 42.3616 69.1156 42.3467 69.3245C42.3319 69.5334 42.3583 69.7431 42.4246 69.9418C42.4908 70.1405 42.5955 70.3242 42.7327 70.4824C42.8699 70.6406 43.037 70.7703 43.2243 70.8639L52.7868 75.6452C53.0082 75.756 53.2524 75.8136 53.5 75.8136C53.7476 75.8136 53.9918 75.756 54.2132 75.6452L63.7757 70.8639C64.154 70.6748 64.4417 70.3431 64.5754 69.9418C64.7092 69.5406 64.6781 69.1026 64.4889 68.7243C64.2998 68.346 63.9681 68.0583 63.5668 67.9246C63.1656 67.7908 62.7276 67.8219 62.3493 68.0111L55.0938 71.6409V64.5826C59.4472 64.1801 63.4939 62.1675 66.4416 58.9387C69.3893 55.7098 71.026 51.4971 71.0312 47.125V39.1563C71.0312 38.7336 70.8633 38.3282 70.5645 38.0293C70.2656 37.7304 69.8602 37.5625 69.4375 37.5625ZM51.9062 61.3811C48.4014 60.9848 45.1648 59.3128 42.8135 56.6837C40.4621 54.0546 39.1603 50.6522 39.1562 47.125V40.8377C42.6611 41.2339 45.8977 42.9059 48.249 45.5351C50.6004 48.1642 51.9022 51.5666 51.9062 55.0938V61.3811ZM53.5 47.7944C52.1593 44.8816 50.0487 42.3901 47.3959 40.5886C49.3025 37.443 52.1772 35.4289 53.5 34.6121C54.8248 35.4249 57.6995 37.439 59.6041 40.5886C56.9517 42.3905 54.8413 44.8819 53.5 47.7944ZM67.8438 47.125C67.8397 50.6522 66.5379 54.0546 64.1865 56.6837C61.8352 59.3128 58.5986 60.9848 55.0938 61.3811V55.0938C55.0978 51.5666 56.3996 48.1642 58.751 45.5351C61.1023 42.9059 64.3389 41.2339 67.8438 40.8377V47.125Z" fill="white"/>
</svg>
