<svg width="107" height="108" viewBox="0 0 107 108" fill="none" xmlns="http://www.w3.org/2000/svg">
<rect y="0.5" width="107" height="107" rx="53.5" fill="#009FE3"/>
<path d="M50.4375 58.5938C50.0314 58.5938 49.6419 58.7552 49.3548 59.0423C49.0676 59.3295 48.9063 59.719 48.9063 60.1251V65.6165L43.4933 60.2016C42.7798 59.4927 42.2142 58.6492 41.8291 57.72C41.444 56.7908 41.2472 55.7945 41.25 54.7887V47.6837C42.6935 47.311 43.9514 46.4246 44.7881 45.1908C45.6248 43.9569 45.9828 42.4603 45.7949 40.9814C45.6071 39.5025 44.8863 38.1429 43.7677 37.1574C42.6492 36.1719 41.2095 35.6282 39.7188 35.6282C38.228 35.6282 36.7884 36.1719 35.6698 37.1574C34.5512 38.1429 33.8304 39.5025 33.6426 40.9814C33.4547 42.4603 33.8127 43.9569 34.6494 45.1908C35.4861 46.4246 36.7441 47.311 38.1875 47.6837V54.7906C38.184 56.1987 38.4595 57.5936 38.9983 58.8946C39.5371 60.1957 40.3285 61.377 41.3266 62.3703L46.7415 67.7813H41.25C40.8439 67.7813 40.4544 67.9427 40.1673 68.2298C39.8801 68.517 39.7188 68.9065 39.7188 69.3126C39.7188 69.7187 39.8801 70.1082 40.1673 70.3953C40.4544 70.6825 40.8439 70.8438 41.25 70.8438H50.4375C50.8436 70.8438 51.2331 70.6825 51.5203 70.3953C51.8074 70.1082 51.9688 69.7187 51.9688 69.3126V60.1251C51.9688 59.719 51.8074 59.3295 51.5203 59.0423C51.2331 58.7552 50.8436 58.5938 50.4375 58.5938ZM36.6563 41.7501C36.6563 41.1444 36.8359 40.5523 37.1724 40.0487C37.5089 39.545 37.9872 39.1525 38.5468 38.9207C39.1064 38.6889 39.7222 38.6283 40.3162 38.7464C40.9103 38.8646 41.456 39.1563 41.8843 39.5846C42.3126 40.0129 42.6043 40.5586 42.7224 41.1526C42.8406 41.7467 42.7799 42.3625 42.5481 42.9221C42.3164 43.4817 41.9238 43.9599 41.4202 44.2965C40.9166 44.633 40.3245 44.8126 39.7188 44.8126C38.9065 44.8126 38.1276 44.4899 37.5532 43.9156C36.9789 43.3413 36.6563 42.5623 36.6563 41.7501ZM68.8125 60.3165V53.2115C68.8161 51.8033 68.5405 50.4084 68.0017 49.1074C67.4629 47.8064 66.6716 46.6251 65.6735 45.6318L60.2586 40.2188H65.75C66.1561 40.2188 66.5456 40.0575 66.8328 39.7703C67.1199 39.4832 67.2813 39.0937 67.2813 38.6876C67.2813 38.2815 67.1199 37.892 66.8328 37.6048C66.5456 37.3177 66.1561 37.1563 65.75 37.1563H56.5625C56.1564 37.1563 55.7669 37.3177 55.4798 37.6048C55.1926 37.892 55.0313 38.2815 55.0313 38.6876V47.8751C55.0313 48.2812 55.1926 48.6707 55.4798 48.9578C55.7669 49.245 56.1564 49.4063 56.5625 49.4063C56.9686 49.4063 57.3581 49.245 57.6453 48.9578C57.9324 48.6707 58.0938 48.2812 58.0938 47.8751V42.3836L63.5067 47.7985C64.2202 48.5075 64.7859 49.351 65.1709 50.2802C65.556 51.2093 65.7528 52.2057 65.75 53.2115V60.3165C64.3066 60.6892 63.0486 61.5755 62.2119 62.8094C61.3752 64.0432 61.0172 65.5399 61.2051 67.0188C61.3929 68.4977 62.1137 69.8573 63.2323 70.8428C64.3509 71.8283 65.7905 72.372 67.2813 72.372C68.772 72.372 70.2117 71.8283 71.3302 70.8428C72.4488 69.8573 73.1696 68.4977 73.3574 67.0188C73.5453 65.5399 73.1873 64.0432 72.3506 62.8094C71.5139 61.5755 70.256 60.6892 68.8125 60.3165ZM67.2813 69.3126C66.6756 69.3126 66.0835 69.133 65.5798 68.7965C65.0762 68.4599 64.6837 67.9817 64.4519 67.4221C64.2201 66.8625 64.1594 66.2467 64.2776 65.6526C64.3958 65.0586 64.6875 64.5129 65.1158 64.0846C65.544 63.6563 66.0897 63.3646 66.6838 63.2464C67.2779 63.1283 67.8936 63.1889 68.4532 63.4207C69.0128 63.6525 69.4911 64.045 69.8276 64.5486C70.1642 65.0523 70.3438 65.6444 70.3438 66.2501C70.3438 67.0623 70.0211 67.8413 69.4468 68.4156C68.8724 68.9899 68.0935 69.3126 67.2813 69.3126Z" fill="white"/>
</svg>
