<svg width="107" height="108" viewBox="0 0 107 108" fill="none" xmlns="http://www.w3.org/2000/svg">
<rect y="0.5" width="107" height="107" rx="53.5" fill="#009FE3"/>
<path d="M47.0531 35.5256C46.9993 35.3189 46.9868 35.1036 47.0163 34.892C47.0458 34.6804 47.1167 34.4768 47.225 34.2926C47.3333 34.1085 47.4769 33.9475 47.6474 33.8189C47.818 33.6903 48.0122 33.5966 48.2191 33.5431C51.6832 32.6497 55.3174 32.6497 58.7816 33.5431C59.1652 33.6414 59.4999 33.8764 59.7225 34.2039C59.9451 34.5315 60.0404 34.9291 59.9906 35.322C59.9407 35.715 59.749 36.0761 59.4515 36.3377C59.1541 36.5992 58.7714 36.7431 58.3753 36.7423C58.2382 36.7416 58.1018 36.7239 57.9691 36.6895C55.0378 35.9335 51.9628 35.9335 49.0316 36.6895C48.6149 36.797 48.1726 36.7348 47.8017 36.5166C47.4308 36.2984 47.1616 35.942 47.0531 35.5256ZM38.4264 39.2002C35.9211 41.7513 34.104 44.8962 33.1451 48.3408C33.0301 48.7561 33.0848 49.2002 33.2972 49.5752C33.5096 49.9502 33.8622 50.2255 34.2776 50.3405C34.6929 50.4556 35.137 50.4009 35.512 50.1885C35.887 49.9761 36.1623 49.6235 36.2773 49.2081C37.0879 46.2924 38.6256 43.6302 40.7461 41.4711C41.0234 41.1591 41.1701 40.7523 41.1556 40.3351C41.1412 39.9179 40.9667 39.5223 40.6684 39.2302C40.3701 38.9382 39.9708 38.7722 39.5534 38.7666C39.136 38.761 38.7324 38.9162 38.4264 39.2002ZM36.2773 58.7834C36.2202 58.5778 36.1232 58.3854 35.9918 58.2172C35.8603 58.049 35.6971 57.9084 35.5113 57.8034C35.3255 57.6983 35.1208 57.6309 34.909 57.6049C34.6971 57.5789 34.4822 57.5949 34.2766 57.652C34.0709 57.7091 33.8785 57.8061 33.7103 57.9376C33.5422 58.069 33.4015 58.2323 33.2965 58.4181C33.1914 58.6039 33.124 58.8086 33.098 59.0204C33.072 59.2323 33.0881 59.4471 33.1451 59.6528C34.1046 63.0971 35.9216 66.242 38.4264 68.7934C38.7286 69.1008 39.1406 69.2755 39.5716 69.2791C40.0026 69.2827 40.4174 69.115 40.7248 68.8127C41.0321 68.5105 41.2068 68.0986 41.2104 67.6675C41.214 67.2365 41.0463 66.8217 40.7441 66.5144C38.6261 64.356 37.0895 61.6963 36.2773 58.7834ZM57.9691 71.3102C55.0379 72.067 51.9627 72.067 49.0316 71.3102C48.8238 71.2531 48.6067 71.2379 48.393 71.2655C48.1793 71.2932 47.9732 71.363 47.7867 71.471C47.6002 71.579 47.4371 71.7231 47.3068 71.8947C47.1766 72.0664 47.0817 72.2622 47.0278 72.4708C46.974 72.6795 46.9621 72.8968 46.993 73.11C47.0239 73.3233 47.0969 73.5283 47.2077 73.7131C47.3186 73.8979 47.4651 74.0588 47.6387 74.1864C47.8123 74.314 48.0096 74.4059 48.2191 74.4566C51.6832 75.35 55.3174 75.35 58.7816 74.4566C59.193 74.3436 59.5435 74.0733 59.7574 73.7041C59.9712 73.3349 60.0313 72.8964 59.9246 72.4833C59.8179 72.0702 59.5531 71.7156 59.1872 71.4961C58.8213 71.2766 58.3838 71.2098 57.9691 71.3102ZM72.7261 57.6561C72.5203 57.599 72.3053 57.583 72.0933 57.6091C71.8813 57.6352 71.6766 57.7028 71.4907 57.8081C71.3049 57.9133 71.1417 58.0542 71.0103 58.2226C70.879 58.391 70.7821 58.5837 70.7253 58.7895C69.9151 61.7048 68.3774 64.3664 66.2565 66.5245C66.107 66.6768 65.989 66.8571 65.9091 67.055C65.8293 67.253 65.7892 67.4647 65.7912 67.6781C65.7932 67.8915 65.8372 68.1025 65.9207 68.2989C66.0042 68.4953 66.1256 68.6734 66.2779 68.8229C66.4302 68.9724 66.6105 69.0904 66.8084 69.1703C67.0063 69.2501 67.2181 69.2902 67.4315 69.2882C67.6449 69.2863 67.8558 69.2423 68.0523 69.1587C68.2487 69.0752 68.4267 68.9539 68.5762 68.8016C71.0819 66.2507 72.899 63.1057 73.8575 59.6609C73.9152 59.455 73.9317 59.2397 73.9061 59.0274C73.8804 58.8151 73.8131 58.6099 73.708 58.4236C73.6029 58.2374 73.4621 58.0737 73.2936 57.942C73.1251 57.8103 72.9322 57.7131 72.7261 57.6561ZM70.7233 49.2183C70.7804 49.4239 70.8774 49.6163 71.0088 49.7845C71.1403 49.9527 71.3035 50.0933 71.4893 50.1984C71.6751 50.3034 71.8798 50.3709 72.0916 50.3968C72.3035 50.4228 72.5184 50.4068 72.7241 50.3497C72.9297 50.2926 73.1221 50.1956 73.2903 50.0641C73.4584 49.9327 73.5991 49.7694 73.7041 49.5836C73.8092 49.3978 73.8766 49.1932 73.9026 48.9813C73.9286 48.7695 73.9125 48.5546 73.8555 48.3489C72.897 44.9042 71.0798 41.7591 68.5742 39.2083C68.4246 39.0561 68.2464 38.9349 68.0499 38.8516C67.8534 38.7682 67.6424 38.7244 67.429 38.7226C67.2156 38.7208 67.0039 38.7611 66.8061 38.8411C66.6082 38.9211 66.428 39.0393 66.2758 39.189C66.1237 39.3386 66.0025 39.5168 65.9191 39.7133C65.8358 39.9098 65.792 40.1207 65.7902 40.3342C65.7884 40.5476 65.8287 40.7593 65.9087 40.9571C65.9887 41.155 66.1069 41.3352 66.2565 41.4873C68.3752 43.6444 69.912 46.3036 70.7233 49.2162V49.2183Z" fill="white"/>
</svg>
