<svg width="107" height="107" viewBox="0 0 107 107" fill="none" xmlns="http://www.w3.org/2000/svg">
<rect width="107" height="107" rx="53.5" fill="#009FE3"/>
<path d="M71.7186 35.2872C69.3746 32.9441 66.196 31.6279 62.8817 31.6279C59.5675 31.6279 56.3889 32.9441 54.0448 35.2872L40.3534 48.8126C40.0623 49.102 39.8315 49.4462 39.6742 49.8253C39.517 50.2045 39.4365 50.6111 39.4374 51.0215V65.3536L33.6444 71.1446C33.4993 71.2898 33.3841 71.4621 33.3055 71.6518C33.227 71.8415 33.1865 72.0448 33.1865 72.2501C33.1865 72.4554 33.227 72.6587 33.3055 72.8483C33.3841 73.038 33.4993 73.2104 33.6444 73.3555C33.9376 73.6487 34.3353 73.8134 34.7499 73.8134C34.9552 73.8134 35.1585 73.773 35.3482 73.6944C35.5378 73.6159 35.7102 73.5007 35.8554 73.3555L41.6483 67.5626H55.9804C56.3903 67.5632 56.7964 67.4828 57.1752 67.3259C57.5539 67.1691 57.8979 66.9388 58.1874 66.6485L71.7089 52.9766C72.872 51.8163 73.795 50.4381 74.4251 48.9208C75.0551 47.4035 75.3799 45.7769 75.3808 44.1339C75.3817 42.491 75.0588 40.864 74.4304 39.346C73.802 37.828 72.8805 36.4488 71.7186 35.2872ZM56.2479 37.4962C57.974 35.7694 60.3056 34.784 62.7469 34.7498C65.1882 34.7155 67.5466 35.635 69.3204 37.3126C71.0943 38.9903 72.1437 41.2938 72.2454 43.7332C72.3471 46.1727 71.4931 48.5555 69.8651 50.3751H58.8378L65.5468 43.668C65.84 43.3748 66.0047 42.9772 66.0047 42.5626C66.0047 42.1479 65.84 41.7503 65.5468 41.4571C65.2536 41.1639 64.8559 40.9992 64.4413 40.9992C64.0267 40.9992 63.629 41.1639 63.3358 41.4571L51.9374 52.8536V41.7559L56.2479 37.4962ZM42.5624 51.0294L48.8124 44.8438V55.9766L42.5624 62.2266V51.0294ZM55.9804 64.4376H44.7733L55.7108 53.5001H66.7929L55.9804 64.4376Z" fill="white"/>
</svg>
