<svg width="107" height="107" viewBox="0 0 107 107" fill="none" xmlns="http://www.w3.org/2000/svg">
<rect width="107" height="107" rx="53.5" fill="#009FE3"/>
<path d="M68.6326 44.4407C66.6477 42.4513 64.2886 40.8746 61.6914 39.8013C59.0942 38.7281 56.3102 38.1796 53.5 38.1875H53.4234C41.6462 38.2277 32.0625 47.9492 32.0625 59.8413V64.2187C32.0625 65.0309 32.3852 65.8099 32.9595 66.3842C33.5338 66.9586 34.3128 67.2812 35.125 67.2812H71.875C72.6872 67.2812 73.4662 66.9586 74.0405 66.3842C74.6148 65.8099 74.9375 65.0309 74.9375 64.2187V59.625C74.9454 56.8024 74.392 54.0065 73.3096 51.3998C72.2272 48.793 70.6374 46.4275 68.6326 44.4407ZM71.875 64.2187H51.9132L62.3946 49.8058C62.6337 49.4774 62.7326 49.0674 62.6694 48.6661C62.6062 48.2648 62.3862 47.905 62.0578 47.6659C61.7293 47.4268 61.3194 47.328 60.918 47.3911C60.5167 47.4543 60.1569 47.6743 59.9179 48.0028L48.1253 64.2187H35.125V59.8413C35.125 59.2517 35.1537 58.6698 35.2073 58.0937H39.7188C40.1249 58.0937 40.5143 57.9324 40.8015 57.6452C41.0887 57.3581 41.25 56.9686 41.25 56.5625C41.25 56.1563 41.0887 55.7669 40.8015 55.4797C40.5143 55.1925 40.1249 55.0312 39.7188 55.0312H35.7509C37.7262 47.5932 44.1728 41.9696 51.9688 41.315V45.8437C51.9688 46.2498 52.1301 46.6393 52.4172 46.9265C52.7044 47.2136 53.0939 47.375 53.5 47.375C53.9061 47.375 54.2956 47.2136 54.5828 46.9265C54.8699 46.6393 55.0312 46.2498 55.0312 45.8437V41.3131C58.83 41.6328 62.4357 43.1244 65.3502 45.5818C68.2646 48.0392 70.3439 51.3411 71.3008 55.0312H67.2812C66.8751 55.0312 66.4857 55.1925 66.1985 55.4797C65.9113 55.7669 65.75 56.1563 65.75 56.5625C65.75 56.9686 65.9113 57.3581 66.1985 57.6452C66.4857 57.9324 66.8751 58.0937 67.2812 58.0937H71.8118C71.852 58.6009 71.875 59.1101 71.875 59.625V64.2187Z" fill="white"/>
</svg>
