<svg width="107" height="107" viewBox="0 0 107 107" fill="none" xmlns="http://www.w3.org/2000/svg">
<rect width="107" height="107" rx="53.5" fill="#009FE3"/>
<path d="M73.2611 35.6395C73.2374 35.2419 73.0658 34.8667 72.7788 34.5851C72.4918 34.3036 72.1094 34.1352 71.7042 34.112C55.9429 33.204 43.3181 37.8596 37.9353 46.594C36.0695 49.5818 35.1501 53.0459 35.2936 56.5471C35.4116 59.7809 36.3722 63.0471 38.1486 66.2666L34.1094 70.2276C33.7986 70.5325 33.624 70.946 33.624 71.3773C33.624 71.8085 33.7986 72.222 34.1094 72.527C34.4202 72.8319 34.8417 73.0032 35.2812 73.0032C35.7207 73.0032 36.1422 72.8319 36.453 72.527L40.4901 68.564C43.7695 70.3048 47.1006 71.2473 50.3945 71.363C50.625 71.3712 50.8548 71.3752 51.0839 71.3752C54.4207 71.384 57.6943 70.4824 60.539 68.7712C69.4414 63.4899 74.1886 51.1054 73.2611 35.6395ZM58.831 65.9924C54.121 68.7915 48.5457 68.8362 42.9496 66.1488L61.2988 48.1479C61.4527 47.9969 61.5748 47.8177 61.658 47.6204C61.7413 47.4231 61.7842 47.2117 61.7842 46.9982C61.7842 46.7847 61.7413 46.5733 61.658 46.376C61.5748 46.1787 61.4527 45.9995 61.2988 45.8485C61.1449 45.6975 60.9622 45.5778 60.7612 45.4961C60.5601 45.4144 60.3446 45.3723 60.127 45.3723C59.9094 45.3723 59.6939 45.4144 59.4928 45.4961C59.2918 45.5778 59.1091 45.6975 58.9552 45.8485L40.6081 63.8596C37.8774 58.3752 37.9167 52.8909 40.7675 48.2779C45.3408 40.8699 56.2121 36.8135 70.0231 37.297C70.5179 50.8373 66.3814 61.5054 58.831 65.9924Z" fill="white"/>
</svg>
