<svg width="107" height="108" viewBox="0 0 107 108" fill="none" xmlns="http://www.w3.org/2000/svg">
<rect y="0.5" width="107" height="107" rx="53.5" fill="#009FE3"/>
<path d="M73.8841 65.541L64.72 54H69.4375C69.7352 54 70.0269 53.9183 70.2797 53.7641C70.5324 53.6099 70.7361 53.3894 70.8676 53.1275C70.999 52.8657 71.0531 52.5729 71.0235 52.2825C70.994 51.9921 70.8821 51.7156 70.7005 51.4843L54.763 31.1718C54.6142 30.9822 54.4229 30.8286 54.2039 30.7229C53.9849 30.6172 53.7441 30.5623 53.5 30.5623C53.2559 30.5623 53.0151 30.6172 52.7961 30.7229C52.5771 30.8286 52.3858 30.9822 52.2369 31.1718L36.2994 51.4843C36.1179 51.7156 36.006 51.9921 35.9764 52.2825C35.9469 52.5729 36.001 52.8657 36.1324 53.1275C36.2639 53.3894 36.4676 53.6099 36.7203 53.7641C36.9731 53.9183 37.2648 54 37.5625 54H42.272L33.108 65.541C32.9244 65.7725 32.811 66.0499 32.7807 66.3416C32.7504 66.6333 32.8044 66.9275 32.9365 67.1905C33.0687 67.4535 33.2737 67.6748 33.5281 67.829C33.7824 67.9832 34.0759 68.0641 34.375 68.0625H51.9062V75.875C51.9062 76.2894 52.0742 76.6868 52.373 76.9798C52.6719 77.2728 53.0773 77.4375 53.5 77.4375C53.9227 77.4375 54.3281 77.2728 54.6269 76.9798C54.9258 76.6868 55.0937 76.2894 55.0937 75.875V68.0625H72.625C72.9234 68.0626 73.2158 67.9806 73.469 67.8258C73.7222 67.6711 73.926 67.4497 74.0572 67.187C74.1884 66.9242 74.2417 66.6306 74.2111 66.3396C74.1805 66.0487 74.0672 65.7719 73.8841 65.541ZM37.6342 64.9375L46.7983 53.3964C46.9818 53.165 47.0953 52.8875 47.1256 52.5958C47.1559 52.3041 47.1019 52.0099 46.9697 51.7469C46.8375 51.4839 46.6326 51.2626 46.3782 51.1084C46.1238 50.9543 45.8303 50.8733 45.5312 50.875H40.7998L53.5 34.6875L66.2002 50.875H61.4687C61.1705 50.8752 60.8784 50.9574 60.6254 51.1123C60.3725 51.2673 60.169 51.4887 60.0381 51.7513C59.9071 52.014 59.854 52.3074 59.8847 52.5982C59.9153 52.8891 60.0286 53.1656 60.2117 53.3964L69.3658 64.9375H37.6342Z" fill="white"/>
</svg>
