<svg width="107" height="107" viewBox="0 0 107 107" fill="none" xmlns="http://www.w3.org/2000/svg">
<rect width="107" height="107" rx="53.5" fill="#009FE3"/>
<path d="M73.3746 41.1704C73.3634 40.1924 73.1511 39.2267 72.7506 38.3312C72.35 37.4356 71.7694 36.6285 71.0435 35.9582C68.145 33.2607 63.4413 33.3623 60.5635 36.1877L56.5637 40.1345C55.6191 39.2897 54.379 38.8347 53.1013 38.8638C51.8235 38.8929 50.6063 39.404 49.7027 40.2909L47.8394 42.119C47.5314 42.4208 47.2871 42.7793 47.1204 43.1738C46.9537 43.5684 46.8679 43.9913 46.8679 44.4184C46.8679 44.8455 46.9537 45.2684 47.1204 45.6629C47.2871 46.0575 47.5314 46.4159 47.8394 46.7177L48.2535 47.1362L37.6949 57.4956C36.6786 58.4849 35.9429 59.7173 35.5606 61.071C35.1782 62.4247 35.1625 63.8528 35.5148 65.2143L33.8586 68.9538C33.6272 69.4673 33.5601 70.0376 33.6662 70.5892C33.7723 71.1409 34.0466 71.648 34.4528 72.0434C34.9217 72.5079 35.5233 72.8218 36.1779 72.9437C36.8326 73.0655 37.5096 72.9896 38.1193 72.7259L41.7485 71.172C43.111 71.4739 44.5292 71.432 45.8707 71.0502C47.2121 70.6683 48.4329 69.9589 49.4191 68.9884L59.9776 58.629L60.4041 59.0474C61.0253 59.6565 61.8675 59.9986 62.7457 59.9986C63.6238 59.9986 64.466 59.6565 65.0872 59.0474L66.9505 57.2193C67.8559 56.3316 68.3773 55.1352 68.4058 53.8796C68.4343 52.624 67.9679 51.4061 67.1037 50.4796L71.1925 46.4435C71.8994 45.754 72.4571 44.9316 72.832 44.0254C73.207 43.1193 73.3916 42.1482 73.3746 41.1704ZM47.0817 66.7032C46.4443 67.3299 45.645 67.7744 44.7697 67.9891C43.8943 68.2038 42.9759 68.1806 42.1129 67.922C41.7346 67.8075 41.3269 67.8299 40.9639 67.9849L37.2166 69.5896L38.8004 65.974C38.9648 65.6045 38.9832 65.1882 38.8522 64.806C38.495 63.7714 38.5022 62.6491 38.8729 61.619H52.2575L47.0817 66.7032ZM55.57 58.3751H41.5063L50.6157 49.4376L57.6423 56.3438L55.57 58.3751ZM68.8572 44.1563L63.6048 49.3401C63.2945 49.6448 63.1201 50.058 63.1201 50.4888C63.1201 50.9195 63.2945 51.3327 63.6048 51.6374L64.6172 52.6287C64.7712 52.7796 64.8934 52.9588 64.9767 53.1561C65.0601 53.3534 65.103 53.5648 65.103 53.7784C65.103 53.9919 65.0601 54.2034 64.9767 54.4006C64.8934 54.5979 64.7712 54.7771 64.6172 54.9281L62.7539 56.7562L50.1871 44.4123L52.0504 42.5841C52.361 42.2796 52.7821 42.1086 53.2212 42.1086C53.6603 42.1086 54.0814 42.2796 54.3919 42.5841L55.4043 43.5774C55.7147 43.8816 56.1354 44.0525 56.5741 44.0527C56.7919 44.0524 57.0076 44.0098 57.2086 43.9276C57.4097 43.8453 57.5923 43.725 57.7459 43.5734L62.9092 38.477C64.5261 36.8885 67.1534 36.8154 68.7661 38.3124C69.169 38.6858 69.4913 39.1346 69.7141 39.6324C69.9369 40.1303 70.0556 40.6669 70.0631 41.2105C70.0706 41.7542 69.9669 42.2937 69.7579 42.7973C69.549 43.3009 69.2392 43.7582 68.8469 44.1421L68.8572 44.1563Z" fill="white"/>
</svg>
