<svg width="107" height="108" viewBox="0 0 107 108" fill="none" xmlns="http://www.w3.org/2000/svg">
<rect y="0.5" width="107" height="107" rx="53.5" fill="#009FE3"/>
<path d="M74.2188 46.1875H71.0312V41.5C71.0312 40.6712 70.6954 39.8763 70.0977 39.2903C69.4999 38.7042 68.6891 38.375 67.8438 38.375H37.5625C36.7171 38.375 35.9064 38.7042 35.3086 39.2903C34.7108 39.8763 34.375 40.6712 34.375 41.5V46.1875H31.1875C30.7648 46.1875 30.3594 46.3521 30.0605 46.6451C29.7617 46.9382 29.5938 47.3356 29.5938 47.75C29.5938 48.1644 29.7617 48.5618 30.0605 48.8549C30.3594 49.1479 30.7648 49.3125 31.1875 49.3125H34.375V54C34.375 54.8288 34.7108 55.6237 35.3086 56.2097C35.9064 56.7958 36.7171 57.125 37.5625 57.125H67.8438C68.6891 57.125 69.4999 56.7958 70.0977 56.2097C70.6954 55.6237 71.0312 54.8288 71.0312 54V49.3125H74.2188V59.0781L54.2172 64.6738C53.5536 64.8622 52.97 65.256 52.5535 65.7963C52.137 66.3367 51.9099 66.9946 51.9062 67.6719V74.3125C51.9062 74.7269 52.0742 75.1243 52.373 75.4174C52.6719 75.7104 53.0773 75.875 53.5 75.875C53.9227 75.875 54.3281 75.7104 54.627 75.4174C54.9258 75.1243 55.0938 74.7269 55.0938 74.3125V67.6719L75.0953 62.0703C75.7579 61.8822 76.3408 61.4893 76.7572 60.9502C77.1736 60.411 77.4013 59.7544 77.4062 59.0781V49.3125C77.4062 48.4837 77.0704 47.6888 76.4727 47.1028C75.8749 46.5167 75.0641 46.1875 74.2188 46.1875ZM67.8438 54H37.5625V41.5H67.8438V54Z" fill="white"/>
</svg>
