<svg width="107" height="108" viewBox="0 0 107 108" fill="none" xmlns="http://www.w3.org/2000/svg">
<rect y="0.5" width="107" height="107" rx="53.5" fill="#009FE3"/>
<path d="M70.5834 32.6472H36.4167C35.5105 32.6472 34.6415 33.0072 34.0007 33.6479C33.36 34.2887 33 35.1577 33 36.0639V48.6138C33 67.7493 49.1908 74.0979 52.4323 75.1763C53.1247 75.4117 53.8754 75.4117 54.5678 75.1763C57.8136 74.0979 74.0001 67.7493 74.0001 48.6138V36.0639C74.0001 35.1577 73.6401 34.2887 72.9994 33.6479C72.3586 33.0072 71.4896 32.6472 70.5834 32.6472ZM53.5001 71.939C51.5227 71.2813 44.2558 68.454 39.8611 61.3687L53.5001 51.8148L67.139 61.3622C62.7486 68.439 55.4945 71.2663 53.5001 71.939ZM70.5834 48.6244C70.5834 52.3913 69.8659 55.5923 68.7213 58.3065L54.4802 48.3383C54.193 48.1371 53.8508 48.0291 53.5001 48.0291C53.1493 48.0291 52.8071 48.1371 52.5199 48.3383L38.2788 58.3C37.1342 55.5859 36.4167 52.3849 36.4167 48.618V36.0639H70.5834V48.6244Z" fill="white"/>
</svg>
