<svg width="100" height="100" viewBox="0 0 100 100" fill="none" xmlns="http://www.w3.org/2000/svg">
<rect width="100" height="100" rx="50" fill="#009FE3"/>
<path d="M35.6152 33.6735V51.3558H39.0332V55.4573H35.6152V65.9163H31.0352V55.4573H17.5684V53.361L33.6556 33.6735H35.6152ZM30.944 42.3095L23.6751 51.3558H31.0352V42.3095H30.944Z" fill="white"/>
<path d="M62.321 50.0114C62.321 54.9028 61.3791 58.8449 59.4954 61.8375C57.6118 64.8301 55.128 66.3265 52.0443 66.3265C48.9605 66.3265 46.4768 64.8301 44.5931 61.8375C42.7094 58.8449 41.7676 54.9028 41.7676 50.0114C41.7676 46.7757 42.1929 43.9198 43.0436 41.4436C43.8943 38.9675 45.0944 37.0535 46.6439 35.7015C48.2086 34.3495 50.0087 33.6735 52.0443 33.6735C54.0799 33.6735 55.8724 34.3495 57.4219 35.7015C58.9865 37.0535 60.1942 38.9675 61.0449 41.4436C61.8956 43.9198 62.321 46.7757 62.321 50.0114ZM56.2142 58.8069C57.232 56.6802 57.7409 53.7483 57.7409 50.0114C57.7409 46.2744 57.232 43.3425 56.2142 41.2158C55.2116 39.0739 53.8216 38.0029 52.0443 38.0029C50.2669 38.0029 48.8694 39.0739 47.8516 41.2158C46.849 43.3425 46.3477 46.2744 46.3477 50.0114C46.3477 53.7483 46.849 56.6802 47.8516 58.8069C48.8694 60.9337 50.2669 61.997 52.0443 61.997C53.8216 61.997 55.2116 60.9337 56.2142 58.8069Z" fill="white"/>
<path d="M73.3027 34.3619H76.0079V40.7867H82.4326V43.4919H76.0079V49.9166H73.3027V43.4919H66.8779V40.7867H73.3027V34.3619Z" fill="white"/>
</svg>
