<svg width="100" height="101" viewBox="0 0 100 101" fill="none" xmlns="http://www.w3.org/2000/svg">
<rect y="0.5" width="100" height="100" rx="50" fill="#009FE3"/>
<path d="M53.5 45.3437V36.75C53.5 36.2941 53.6844 35.857 54.0126 35.5346C54.3407 35.2123 54.7859 35.0312 55.25 35.0312C55.7141 35.0312 56.1592 35.2123 56.4874 35.5346C56.8156 35.857 57 36.2941 57 36.75V41.1951L66.2619 32.0965C66.5902 31.774 67.0356 31.5928 67.5 31.5928C67.9644 31.5928 68.4098 31.774 68.7381 32.0965C69.0665 32.419 69.251 32.8564 69.251 33.3125C69.251 33.7686 69.0665 34.206 68.7381 34.5285L59.4741 43.625H64C64.4641 43.625 64.9092 43.8061 65.2374 44.1284C65.5656 44.4507 65.75 44.8879 65.75 45.3437C65.75 45.7996 65.5656 46.2367 65.2374 46.5591C64.9092 46.8814 64.4641 47.0625 64 47.0625H55.25C54.7859 47.0625 54.3407 46.8814 54.0126 46.5591C53.6844 46.2367 53.5 45.7996 53.5 45.3437ZM44.75 53.9375H36C35.5359 53.9375 35.0907 54.1186 34.7626 54.4409C34.4344 54.7632 34.25 55.2004 34.25 55.6562C34.25 56.1121 34.4344 56.5492 34.7626 56.8716C35.0907 57.1939 35.5359 57.375 36 57.375H40.5259L31.2619 66.4715C30.9335 66.794 30.749 67.2314 30.749 67.6875C30.749 68.1436 30.9335 68.581 31.2619 68.9035C31.5902 69.226 32.0356 69.4072 32.5 69.4072C32.9644 69.4072 33.4098 69.226 33.7381 68.9035L43 59.8049V64.25C43 64.7058 43.1844 65.143 43.5126 65.4653C43.8407 65.7876 44.2859 65.9687 44.75 65.9687C45.2141 65.9687 45.6592 65.7876 45.9874 65.4653C46.3156 65.143 46.5 64.7058 46.5 64.25V55.6562C46.5 55.2004 46.3156 54.7632 45.9874 54.4409C45.6592 54.1186 45.2141 53.9375 44.75 53.9375ZM59.4741 57.375H64C64.4641 57.375 64.9092 57.1939 65.2374 56.8716C65.5656 56.5492 65.75 56.1121 65.75 55.6562C65.75 55.2004 65.5656 54.7632 65.2374 54.4409C64.9092 54.1186 64.4641 53.9375 64 53.9375H55.25C54.7859 53.9375 54.3407 54.1186 54.0126 54.4409C53.6844 54.7632 53.5 55.2004 53.5 55.6562V64.25C53.5 64.7058 53.6844 65.143 54.0126 65.4653C54.3407 65.7876 54.7859 65.9687 55.25 65.9687C55.7141 65.9687 56.1592 65.7876 56.4874 65.4653C56.8156 65.143 57 64.7058 57 64.25V59.8049L66.2619 68.9035C66.4245 69.0632 66.6175 69.1899 66.8299 69.2763C67.0424 69.3627 67.2701 69.4072 67.5 69.4072C67.7299 69.4072 67.9576 69.3627 68.1701 69.2763C68.3825 69.1899 68.5755 69.0632 68.7381 68.9035C68.9007 68.7438 69.0297 68.5542 69.1177 68.3456C69.2057 68.1369 69.251 67.9133 69.251 67.6875C69.251 67.4616 69.2057 67.238 69.1177 67.0294C69.0297 66.8207 68.9007 66.6312 68.7381 66.4715L59.4741 57.375ZM44.75 35.0312C44.2859 35.0312 43.8407 35.2123 43.5126 35.5346C43.1844 35.857 43 36.2941 43 36.75V41.1951L33.7381 32.0965C33.4098 31.774 32.9644 31.5928 32.5 31.5928C32.0356 31.5928 31.5902 31.774 31.2619 32.0965C30.9335 32.419 30.749 32.8564 30.749 33.3125C30.749 33.7686 30.9335 34.206 31.2619 34.5285L40.5259 43.625H36C35.5359 43.625 35.0907 43.8061 34.7626 44.1284C34.4344 44.4507 34.25 44.8879 34.25 45.3437C34.25 45.7996 34.4344 46.2367 34.7626 46.5591C35.0907 46.8814 35.5359 47.0625 36 47.0625H44.75C45.2141 47.0625 45.6592 46.8814 45.9874 46.5591C46.3156 46.2367 46.5 45.7996 46.5 45.3437V36.75C46.5 36.2941 46.3156 35.857 45.9874 35.5346C45.6592 35.2123 45.2141 35.0312 44.75 35.0312Z" fill="white"/>
</svg>
