<svg width="100" height="101" viewBox="0 0 100 101" fill="none" xmlns="http://www.w3.org/2000/svg">
<rect y="0.666504" width="100" height="100" rx="50" fill="#009FE3"/>
<path d="M63.1911 50.6665L69.6525 44.2027C70.5434 43.3423 71.2539 42.3131 71.7427 41.1751C72.2316 40.0372 72.4889 38.8133 72.4996 37.5748C72.5104 36.3363 72.2744 35.1081 71.8054 33.9618C71.3364 32.8156 70.6439 31.7742 69.7681 30.8984C68.8924 30.0226 67.8509 29.3301 66.7047 28.8611C65.5584 28.3921 64.3302 28.1561 63.0917 28.1669C61.8532 28.1776 60.6293 28.4349 59.4914 28.9238C58.3534 29.4126 57.3242 30.1232 56.4638 31.014L50 37.4754L43.5362 31.014C42.6758 30.1232 41.6466 29.4126 40.5086 28.9238C39.3707 28.4349 38.1468 28.1776 36.9083 28.1669C35.6698 28.1561 34.4416 28.3921 33.2953 28.8611C32.1491 29.3301 31.1076 30.0226 30.2319 30.8984C29.3561 31.7742 28.6635 32.8156 28.1946 33.9618C27.7256 35.1081 27.4896 36.3363 27.5004 37.5748C27.5111 38.8133 27.7684 40.0372 28.2572 41.1751C28.7461 42.3131 29.4567 43.3423 30.3475 44.2027L36.8089 50.6665L30.3475 57.1303C29.4567 57.9907 28.7461 59.0199 28.2572 60.1579C27.7684 61.2958 27.5111 62.5197 27.5004 63.7582C27.4896 64.9967 27.7256 66.2249 28.1946 67.3712C28.6635 68.5175 29.3561 69.5589 30.2319 70.4346C31.1076 71.3104 32.1491 72.003 33.2953 72.4719C34.4416 72.9409 35.6698 73.1769 36.9083 73.1662C38.1468 73.1554 39.3707 72.8981 40.5086 72.4093C41.6466 71.9204 42.6758 71.2099 43.5362 70.319L50 63.8576L56.4638 70.319C57.3242 71.2099 58.3534 71.9204 59.4914 72.4093C60.6293 72.8981 61.8532 73.1554 63.0917 73.1662C64.3302 73.1769 65.5584 72.9409 66.7047 72.4719C67.8509 72.003 68.8924 71.3104 69.7681 70.4346C70.6439 69.5589 71.3364 68.5175 71.8054 67.3712C72.2744 66.2249 72.5104 64.9967 72.4996 63.7582C72.4889 62.5197 72.2316 61.2958 71.7427 60.1579C71.2539 59.0199 70.5434 57.9907 69.6525 57.1303L63.1911 50.6665ZM59.0941 33.6443C59.6146 33.1237 60.2326 32.7108 60.9128 32.429C61.593 32.1473 62.3219 32.0023 63.0581 32.0023C63.7943 32.0023 64.5233 32.1473 65.2035 32.429C65.8836 32.7108 66.5016 33.1237 67.0222 33.6443C67.5428 34.1649 67.9557 34.7829 68.2375 35.463C68.5192 36.1432 68.6642 36.8722 68.6642 37.6084C68.6642 38.3446 68.5192 39.0735 68.2375 39.7537C67.9557 40.4339 67.5428 41.0519 67.0222 41.5724L60.5584 48.0362L52.6373 40.1151L59.0941 33.6443ZM57.9072 50.6665L50 58.5807L42.0858 50.6665L50 42.7523L57.9072 50.6665ZM32.9778 41.5724C32.4572 41.0519 32.0443 40.4339 31.7625 39.7537C31.4808 39.0735 31.3358 38.3446 31.3358 37.6084C31.3358 36.8722 31.4808 36.1432 31.7625 35.463C32.0443 34.7829 32.4572 34.1649 32.9778 33.6443C33.4984 33.1237 34.1164 32.7108 34.7965 32.429C35.4767 32.1473 36.2057 32.0023 36.9419 32.0023C37.6781 32.0023 38.407 32.1473 39.0872 32.429C39.7674 32.7108 40.3854 33.1237 40.9059 33.6443L47.3697 40.1081L39.4486 48.0292L32.9778 41.5724ZM40.9059 67.6887C40.3854 68.2093 39.7674 68.6222 39.0872 68.904C38.407 69.1857 37.6781 69.3307 36.9419 69.3307C36.2057 69.3307 35.4767 69.1857 34.7965 68.904C34.1164 68.6222 33.4984 68.2093 32.9778 67.6887C32.4572 67.1682 32.0443 66.5501 31.7625 65.87C31.4808 65.1898 31.3358 64.4608 31.3358 63.7246C31.3358 62.9884 31.4808 62.2595 31.7625 61.5793C32.0443 60.8991 32.4572 60.2811 32.9778 59.7606L39.4416 53.2968L47.3557 61.211L40.9059 67.6887ZM67.0222 67.6887C66.5023 68.2105 65.8845 68.6244 65.2043 68.9069C64.524 69.1893 63.7947 69.3347 63.0581 69.3347C62.3216 69.3347 61.5923 69.1893 60.912 68.9069C60.2318 68.6244 59.614 68.2105 59.0941 67.6887L52.6303 61.2249L60.5444 53.3108L67.0222 59.7606C67.5439 60.2805 67.9579 60.8983 68.2404 61.5785C68.5228 62.2588 68.6682 62.9881 68.6682 63.7246C68.6682 64.4612 68.5228 65.1905 68.2404 65.8708C67.9579 66.551 67.5439 67.1688 67.0222 67.6887ZM47.2018 50.6665C47.2018 50.1131 47.3659 49.5721 47.6734 49.1119C47.9809 48.6518 48.4179 48.2931 48.9292 48.0813C49.4405 47.8695 50.0031 47.8141 50.5459 47.9221C51.0887 48.0301 51.5873 48.2966 51.9786 48.6879C52.3699 49.0792 52.6364 49.5778 52.7444 50.1206C52.8524 50.6634 52.797 51.226 52.5852 51.7373C52.3734 52.2486 52.0147 52.6856 51.5546 52.9931C51.0944 53.3006 50.5534 53.4647 50 53.4647C49.2579 53.4647 48.5462 53.1699 48.0214 52.6451C47.4966 52.1203 47.2018 51.4086 47.2018 50.6665Z" fill="white"/>
</svg>
