<svg width="100" height="100" viewBox="0 0 100 100" fill="none" xmlns="http://www.w3.org/2000/svg">
<rect width="100" height="100" rx="50" fill="#009FE3"/>
<path d="M67.2871 44.7501L63.9121 38.9038C63.4695 38.1363 62.8399 37.4932 62.0819 37.0345C61.3239 36.5759 60.4622 36.3165 59.5769 36.2805C58.6917 36.2446 57.8117 36.4333 57.019 36.829C56.2263 37.2248 55.5467 37.8147 55.0434 38.5438L52.1671 33.5582C51.7121 32.7703 51.0602 32.1141 50.2752 31.6541C49.4902 31.1941 48.5992 30.946 47.6894 30.934C46.7797 30.9221 45.8824 31.1469 45.0857 31.5862C44.289 32.0255 43.6201 32.6643 43.1446 33.4401C42.216 32.604 41.0197 32.1266 39.7707 32.0936C38.5216 32.0606 37.3018 32.4741 36.3303 33.2598C35.3588 34.0456 34.6994 35.1521 34.4706 36.3804C34.2419 37.6088 34.4587 38.8785 35.0821 39.9613L35.7084 41.0469C34.8251 41.1179 33.9742 41.4113 33.2349 41.8997C32.4956 42.3882 31.892 43.0558 31.4802 43.8404C31.0684 44.625 30.862 45.501 30.88 46.3869C30.898 47.2728 31.14 48.1397 31.5834 48.9069L38.7084 61.2482C39.7873 63.128 41.2282 64.7754 42.9478 66.0949C44.6673 67.4144 46.6314 68.38 48.7265 68.9357C50.1283 69.3101 51.5731 69.4992 53.024 69.4982C55.9178 69.4934 58.7595 68.7276 61.2639 67.2776C63.7683 65.8277 65.8473 63.7445 67.2923 61.2373C68.7373 58.73 69.4975 55.8868 69.4966 52.993C69.4957 50.0991 68.7337 47.2564 67.2871 44.7501ZM66.0365 56.4932C65.3455 59.0723 63.9053 61.3886 61.8979 63.1491C59.8905 64.9097 57.4061 66.0355 54.7589 66.3841C52.1117 66.7327 49.4206 66.2885 47.0259 65.1077C44.6311 63.9268 42.6403 62.0623 41.3052 59.7501L34.1802 47.4088C34.0325 47.1528 33.9366 46.8703 33.8981 46.5773C33.8595 46.2843 33.8791 45.9866 33.9556 45.7011C34.1101 45.1246 34.4874 44.6331 35.0043 44.3347C35.5212 44.0364 36.1355 43.9556 36.712 44.1101C36.9974 44.1866 37.265 44.3186 37.4995 44.4986C37.7339 44.6785 37.9306 44.9028 38.0784 45.1588L42.2034 52.3026C42.2989 52.4786 42.4288 52.6337 42.5853 52.7587C42.7418 52.8837 42.9218 52.9761 43.1146 53.0305C43.3074 53.0848 43.5091 53.1 43.7078 53.0751C43.9066 53.0503 44.0984 52.9858 44.2718 52.8856C44.4453 52.7855 44.5969 52.6515 44.7177 52.4918C44.8386 52.3321 44.9262 52.1497 44.9755 51.9556C45.0247 51.7614 45.0346 51.5594 45.0045 51.3613C44.9744 51.1633 44.905 50.9733 44.8002 50.8026L37.6752 38.4632C37.4527 38.0778 37.3496 37.635 37.3787 37.191C37.4078 36.7469 37.568 36.3215 37.839 35.9684C38.1099 35.6154 38.4794 35.3506 38.9009 35.2076C39.3223 35.0646 39.7766 35.0498 40.2065 35.1651C40.4924 35.2405 40.7605 35.372 40.9951 35.5519C41.2298 35.7318 41.4263 35.9566 41.5734 36.2132L47.9484 47.2551C48.1528 47.5884 48.4792 47.8287 48.8582 47.9248C49.2372 48.0209 49.6387 47.9653 49.9773 47.7697C50.3159 47.5742 50.5647 47.2542 50.6708 46.8778C50.7769 46.5015 50.7318 46.0986 50.5452 45.7551L45.6702 37.3176C45.3847 36.8017 45.3131 36.1943 45.4709 35.6262C45.6286 35.058 46.0031 34.5745 46.5137 34.2796C47.0243 33.9848 47.6302 33.9021 48.2012 34.0495C48.7721 34.1968 49.2624 34.5624 49.5665 35.0676L55.9996 46.2088C54.3619 47.5657 53.2567 49.4578 52.8793 51.5508C52.5018 53.6438 52.8765 55.8029 53.9371 57.6463C54.136 57.9909 54.4637 58.2424 54.848 58.3454C55.2323 58.4485 55.6419 58.3946 55.9865 58.1957C56.3311 57.9968 56.5826 57.6691 56.6856 57.2848C56.7886 56.9004 56.7348 56.4909 56.5359 56.1463C55.7403 54.7683 55.5247 53.1308 55.9365 51.5938C56.3482 50.0569 57.3536 48.7464 58.7315 47.9507C58.9021 47.8522 59.0517 47.7211 59.1717 47.5648C59.2917 47.4085 59.3797 47.2301 59.4307 47.0398C59.4817 46.8495 59.4948 46.651 59.469 46.4556C59.4433 46.2603 59.3794 46.0719 59.2809 45.9013L57.4059 42.6538C57.1204 42.1379 57.0488 41.5305 57.2065 40.9624C57.3642 40.3943 57.7387 39.9108 58.2493 39.6159C58.7599 39.321 59.3659 39.2384 59.9368 39.3857C60.5077 39.5331 60.998 39.8987 61.3021 40.4038L64.6771 46.2501C65.5699 47.7823 66.1497 49.4765 66.3831 51.2345C66.6164 52.9924 66.4986 54.7792 66.0365 56.4913V56.4932ZM60.5502 31.6119C60.6011 31.4216 60.6891 31.2431 60.809 31.0867C60.9289 30.9304 61.0785 30.7991 61.2491 30.7006C61.4197 30.602 61.6081 30.5381 61.8035 30.5123C61.9989 30.4866 62.1974 30.4996 62.3877 30.5507C65.3709 31.3513 67.8252 33.1963 69.299 35.7501C69.4979 36.0947 69.5518 36.5042 69.4487 36.8885C69.3457 37.2729 69.0942 37.6005 68.7496 37.7994C68.405 37.9983 67.9955 38.0522 67.6111 37.9492C67.2268 37.8462 66.8991 37.5947 66.7002 37.2501C65.6277 35.3901 63.8202 34.0401 61.6115 33.4494C61.4211 33.3985 61.2426 33.3106 61.0863 33.1907C60.9299 33.0708 60.7987 32.9212 60.7001 32.7506C60.6016 32.5799 60.5376 32.3915 60.5119 32.1962C60.4862 32.0008 60.4992 31.8023 60.5502 31.6119ZM41.1702 70.4376C41.0483 70.5924 40.897 70.7216 40.7251 70.818C40.5531 70.9143 40.3639 70.9758 40.1682 70.999C39.9724 71.0221 39.7741 71.0065 39.5844 70.953C39.3947 70.8994 39.2175 70.809 39.0627 70.6869C37.0002 69.0576 35.2921 67.0157 33.7002 64.2594C33.5013 63.9148 33.4474 63.5053 33.5505 63.121C33.6535 62.7366 33.905 62.409 34.2496 62.2101C34.5942 62.0111 35.0037 61.9573 35.3881 62.0603C35.7724 62.1633 36.1001 62.4148 36.299 62.7594C37.694 65.1744 39.1621 66.9444 40.9209 68.3319C41.233 68.5782 41.4346 68.9383 41.4813 69.3331C41.5281 69.728 41.4162 70.1252 41.1702 70.4376Z" fill="white"/>
</svg>
