<svg width="100" height="101" viewBox="0 0 100 101" fill="none" xmlns="http://www.w3.org/2000/svg">
<rect y="0.333496" width="100" height="100" rx="50" fill="#009FE3"/>
<path d="M70.3217 67.1164L52.8246 50.3335L70.3217 33.5506C70.3316 33.5394 70.3422 33.5287 70.3534 33.5188C70.8998 32.971 71.2718 32.2733 71.4225 31.5138C71.5732 30.7542 71.4958 29.967 71.2001 29.2516C70.9043 28.5361 70.4035 27.9245 69.761 27.4942C69.1184 27.0638 68.3629 26.8339 67.5899 26.8335H32.4052C31.6324 26.8343 30.8773 27.0646 30.2351 27.4952C29.5929 27.9257 29.0925 28.5373 28.797 29.2527C28.5016 29.968 28.4244 30.7551 28.5751 31.5144C28.7259 32.2737 29.0979 32.9712 29.6441 33.5188L29.6735 33.5506L47.1706 50.3335L29.6735 67.1164L29.6441 67.1482C29.0979 67.6958 28.7259 68.3933 28.5751 69.1526C28.4244 69.9119 28.5016 70.6989 28.797 71.4143C29.0925 72.1297 29.5929 72.7412 30.2351 73.1718C30.8773 73.6024 31.6324 73.8327 32.4052 73.8335H67.5899C68.3631 73.8336 69.1189 73.6041 69.7619 73.1739C70.4048 72.7437 70.906 72.1321 71.202 71.4166C71.4981 70.701 71.5757 69.9136 71.4251 69.1538C71.2745 68.3941 70.9024 67.6961 70.3559 67.1482C70.3438 67.1383 70.3324 67.1277 70.3217 67.1164ZM40.5734 38.5835H59.4217L49.9976 47.6212L40.5734 38.5835ZM67.5899 30.7502L63.5095 34.6668H36.4905L32.4052 30.7502H67.5899ZM32.4052 69.9168L49.9976 53.0458L67.5899 69.9168H32.4052Z" fill="white"/>
</svg>
