<svg width="100" height="100" viewBox="0 0 100 100" fill="none" xmlns="http://www.w3.org/2000/svg">
<rect width="100" height="100" rx="50" fill="#009FE3"/>
<path d="M79.4516 51.3265L73.8266 56.9515C73.6525 57.1258 73.4457 57.2641 73.2181 57.3585C72.9905 57.4528 72.7465 57.5014 72.5001 57.5014C72.2537 57.5014 72.0097 57.4528 71.7821 57.3585C71.5544 57.2641 71.3476 57.1258 71.1735 56.9515L65.5485 51.3265C65.1967 50.9747 64.999 50.4975 64.999 49.9999C64.999 49.5024 65.1967 49.0252 65.5485 48.6734C65.9003 48.3216 66.3775 48.1239 66.8751 48.1239C67.3726 48.1239 67.8498 48.3216 68.2016 48.6734L70.6251 51.0992V49.9999C70.6272 45.6327 69.243 41.3774 66.6719 37.8472C64.1008 34.317 60.4754 31.6941 56.3181 30.3563C52.1608 29.0185 47.6861 29.0348 43.5387 30.403C39.3912 31.7712 35.7852 34.4206 33.2399 37.9695C32.9496 38.3735 32.5107 38.6457 32.0198 38.7261C31.5288 38.8066 31.026 38.6887 30.6219 38.3984C30.2179 38.1081 29.9457 37.6692 29.8653 37.1782C29.7849 36.6873 29.9027 36.1845 30.193 35.7804C33.2012 31.5863 37.4631 28.4554 42.3647 26.8386C47.2662 25.2218 52.5545 25.2026 57.4677 26.7839C62.3809 28.3652 66.6653 31.4652 69.7037 35.6374C72.7422 39.8096 74.3778 44.8386 74.3751 49.9999V51.0992L76.7985 48.6734C77.1503 48.3216 77.6275 48.1239 78.1251 48.1239C78.6226 48.1239 79.0998 48.3216 79.4516 48.6734C79.8035 49.0252 80.0011 49.5024 80.0011 49.9999C80.0011 50.4975 79.8035 50.9747 79.4516 51.3265ZM69.8001 64.2171C66.791 68.4081 62.5298 71.5361 57.6298 73.151C52.7298 74.766 47.4437 74.7845 42.5325 73.2038C37.6213 71.6232 33.3383 68.5251 30.3 64.3553C27.2617 60.1855 25.6249 55.1592 25.6251 49.9999V48.9007L23.2016 51.3265C22.8498 51.6783 22.3726 51.876 21.8751 51.876C21.3775 51.876 20.9003 51.6783 20.5485 51.3265C20.1967 50.9747 19.999 50.4975 19.999 49.9999C19.999 49.5024 20.1967 49.0252 20.5485 48.6734L26.1735 43.0484C26.3476 42.874 26.5544 42.7357 26.7821 42.6414C27.0097 42.547 27.2537 42.4985 27.5001 42.4985C27.7465 42.4985 27.9905 42.547 28.2181 42.6414C28.4457 42.7357 28.6525 42.874 28.8266 43.0484L34.4516 48.6734C34.8035 49.0252 35.0011 49.5024 35.0011 49.9999C35.0011 50.4975 34.8035 50.9747 34.4516 51.3265C34.0998 51.6783 33.6226 51.876 33.1251 51.876C32.6275 51.876 32.1503 51.6783 31.7985 51.3265L29.3751 48.9007V49.9999C29.3706 55.0488 31.2263 59.9224 34.5876 63.6898C36.6787 60.6595 39.6192 58.3151 43.0391 56.9515C41.2021 55.5046 39.8615 53.5211 39.204 51.277C38.5464 49.0329 38.6045 46.6397 39.3702 44.4301C40.1359 42.2206 41.571 40.3045 43.4761 38.9484C45.3813 37.5923 47.6616 36.8636 50.0001 36.8636C52.3385 36.8636 54.6189 37.5923 56.524 38.9484C58.4291 40.3045 59.8643 42.2206 60.6299 44.4301C61.3956 46.6397 61.4537 49.0329 60.7962 51.277C60.1386 53.5211 58.7981 55.5046 56.961 56.9515C60.3841 58.3154 63.3266 60.6625 65.4173 63.6968C65.8913 63.1644 66.338 62.6082 66.7555 62.0304C67.0458 61.6264 67.4847 61.3542 67.9757 61.2738C68.4667 61.1933 68.9695 61.3112 69.3735 61.6015C69.7775 61.8918 70.0497 62.3307 70.1302 62.8217C70.2106 63.3126 70.0927 63.8154 69.8024 64.2195L69.8001 64.2171ZM50.0001 55.6249C51.4834 55.6249 52.9335 55.1851 54.1668 54.361C55.4002 53.5368 56.3615 52.3655 56.9292 50.9951C57.4968 49.6246 57.6453 48.1166 57.356 46.6618C57.0666 45.2069 56.3523 43.8705 55.3034 42.8216C54.2545 41.7727 52.9181 41.0584 51.4632 40.769C50.0084 40.4797 48.5004 40.6282 47.1299 41.1958C45.7595 41.7635 44.5882 42.7248 43.764 43.9582C42.9399 45.1915 42.5001 46.6416 42.5001 48.1249C42.5001 50.1141 43.2902 52.0217 44.6968 53.4282C46.1033 54.8348 48.0109 55.6249 50.0001 55.6249ZM50.0001 70.6249C54.5761 70.619 59.0208 69.0948 62.6376 66.2913C61.2812 64.17 59.4126 62.4242 57.204 61.2149C54.9954 60.0056 52.518 59.3718 50.0001 59.3718C47.4821 59.3718 45.0047 60.0056 42.7961 61.2149C40.5876 62.4242 38.719 64.17 37.3626 66.2913C40.9739 69.1048 45.4222 70.6302 50.0001 70.6249Z" fill="white"/>
</svg>
